<svg width="125" height="29" viewBox="0 0 125 29" fill="none" xmlns="http://www.w3.org/2000/svg">
<path d="M52.943 11.759C51.584 11.759 50.462 12.077 49.599 12.692C48.714 13.308 48.24 14.177 48.089 15.281H49.923C50.031 14.708 50.376 14.241 50.894 13.901C51.39 13.562 52.058 13.392 52.835 13.392C53.742 13.392 54.432 13.583 54.95 14.007C55.446 14.431 55.684 15.005 55.684 15.726V16.489H52.318C50.808 16.489 49.686 16.808 48.909 17.402C48.111 17.996 47.722 18.887 47.722 20.012C47.722 21.03 48.111 21.816 48.888 22.409C49.643 23.004 50.657 23.3 51.929 23.3C53.59 23.3 54.864 22.664 55.77 21.412L55.921 23.173H57.518V15.853C57.518 14.559 57.107 13.541 56.331 12.84C55.533 12.119 54.389 11.759 52.943 11.759ZM55.705 18.569C55.705 19.524 55.381 20.289 54.734 20.86C54.087 21.455 53.202 21.752 52.081 21.752C51.325 21.752 50.721 21.583 50.268 21.242C49.815 20.903 49.599 20.458 49.599 19.906C49.599 18.654 50.462 18.038 52.167 18.038H55.706L55.705 18.569ZM61.4 7.55804C61.055 7.55804 60.775 7.66304 60.537 7.89704C60.307 8.11904 60.181 8.42704 60.192 8.74504C60.192 9.08504 60.3 9.36104 60.537 9.59404C60.775 9.82804 61.055 9.93404 61.4 9.93404C61.745 9.93404 62.025 9.82804 62.264 9.59504C62.501 9.36104 62.608 9.08504 62.608 8.74504C62.608 8.40704 62.501 8.13004 62.263 7.89704C62.033 7.67304 61.722 7.55104 61.4 7.55804ZM58.659 13.562H60.471V23.152H62.305V11.907H58.659V13.562ZM80.927 12.458C80.107 11.992 79.137 11.779 78.08 11.779C76.418 11.779 75.124 12.416 74.153 13.71L73.916 11.906H72.319V27.565H74.153V21.434C74.543 22.007 75.079 22.469 75.707 22.77C76.354 23.109 77.174 23.279 78.08 23.279C79.137 23.279 80.086 23.046 80.906 22.557C81.735 22.067 82.414 21.363 82.87 20.521C83.344 19.651 83.56 18.654 83.56 17.529C83.56 16.341 83.344 15.302 82.87 14.431C82.394 13.583 81.747 12.904 80.927 12.458ZM80.668 20.499C79.979 21.263 79.05 21.667 77.907 21.667C77.174 21.667 76.527 21.497 75.965 21.136C75.381 20.774 74.916 20.25 74.628 19.63C74.303 18.993 74.153 18.293 74.153 17.466C74.153 16.681 74.304 15.959 74.628 15.323C74.951 14.707 75.383 14.22 75.965 13.858C76.527 13.519 77.174 13.35 77.907 13.35C79.05 13.35 79.979 13.731 80.668 14.495C81.359 15.259 81.705 16.278 81.705 17.487C81.705 18.739 81.359 19.736 80.668 20.499ZM64.832 14.093V23.152H66.666V13.562H70.636V11.907H67.054C65.824 11.907 64.831 12.861 64.831 14.092L64.832 14.093ZM87.529 7.70604H85.694V23.152H87.529V7.70604ZM94.821 11.759C93.462 11.759 92.34 12.077 91.477 12.692C90.592 13.308 90.117 14.177 89.967 15.281H91.801C91.908 14.708 92.254 14.241 92.771 13.901C93.268 13.562 93.936 13.392 94.713 13.392C95.619 13.392 96.31 13.583 96.827 14.007C97.324 14.431 97.561 15.005 97.561 15.726V16.489H94.195C92.685 16.489 91.563 16.808 90.787 17.402C89.988 17.996 89.6 18.887 89.6 20.012C89.6 21.03 89.988 21.816 90.764 22.409C91.52 23.004 92.534 23.3 93.807 23.3C95.468 23.3 96.741 22.664 97.647 21.412L97.798 23.173H99.395V15.853C99.395 14.559 98.985 13.541 98.209 12.84C97.41 12.119 96.266 11.759 94.821 11.759ZM97.583 18.569C97.583 19.524 97.259 20.289 96.612 20.86C95.965 21.455 95.08 21.752 93.958 21.752C93.203 21.752 92.599 21.583 92.146 21.242C91.692 20.903 91.477 20.458 91.477 19.906C91.477 18.654 92.34 18.038 94.045 18.038H97.583V18.569ZM107.38 11.759C105.739 11.759 104.489 12.31 103.604 13.413L103.366 11.886H101.77V23.131H103.604V17.508C103.604 16.256 103.928 15.239 104.531 14.517C105.136 13.795 105.998 13.413 107.056 13.413C108.07 13.413 108.825 13.732 109.364 14.326C109.882 14.941 110.141 15.832 110.141 16.999V23.152H111.975V16.893C111.975 15.132 111.544 13.817 110.724 13.01C109.904 12.183 108.782 11.759 107.38 11.759ZM124.768 17.869C124.79 17.508 124.812 17.253 124.812 17.105C124.79 16.023 124.553 15.068 124.078 14.262C123.603 13.456 122.978 12.819 122.179 12.416C121.381 11.992 120.453 11.779 119.396 11.779C118.338 11.779 117.39 12.013 116.57 12.479C115.75 12.96 115.09 13.668 114.671 14.516C114.197 15.386 113.98 16.384 113.98 17.529C113.98 18.654 114.218 19.672 114.692 20.521C115.167 21.412 115.815 22.091 116.656 22.557C117.519 23.046 118.49 23.279 119.634 23.279C120.928 23.279 122.028 22.898 122.934 22.175C123.84 21.455 124.401 20.521 124.618 19.376H122.762C122.568 20.096 122.179 20.649 121.619 21.052C121.036 21.475 120.345 21.667 119.504 21.667C118.446 21.667 117.584 21.328 116.915 20.67C116.267 20.012 115.9 19.12 115.879 18.017V17.869H124.768ZM117.109 14.199C117.756 13.646 118.511 13.349 119.396 13.349C120.367 13.349 121.165 13.604 121.813 14.134C122.438 14.665 122.805 15.407 122.892 16.362H115.987C116.073 15.471 116.462 14.75 117.109 14.199ZM13.574 0.337036L22.814 0.341036C23.513 0.341036 24.15 0.741036 24.447 1.36804C26.355 5.41204 33.384 20.3 36.218 26.303C36.478 26.855 36.436 27.499 36.106 28.012C35.774 28.526 35.201 28.837 34.586 28.837H30.57C29.231 28.837 27.953 28.285 27.042 27.312C26.273 26.49 25.359 25.512 24.741 24.85C24.285 24.364 23.646 24.088 22.976 24.088L13.263 24.085C12.594 24.085 11.955 24.361 11.5 24.847L9.19801 27.309C8.28701 28.281 7.00901 28.834 5.66901 28.834H1.80201C1.18701 28.834 0.614008 28.524 0.282008 28.011C-0.0479916 27.497 -0.0909905 26.852 0.169009 26.301L11.941 1.36604C12.238 0.739036 12.874 0.338036 13.574 0.338036V0.337036ZM28.354 23.345C26.931 19.955 21.608 8.35204 19.286 3.30604C19.091 2.88104 18.663 2.60704 18.192 2.60704C17.72 2.60704 17.292 2.88104 17.097 3.30604C14.777 8.35104 9.45601 19.952 8.03201 23.343C7.98301 23.465 7.99901 23.603 8.07301 23.711C8.14701 23.82 8.27101 23.886 8.40301 23.886H10.216C10.953 23.887 11.651 23.552 12.107 22.978L14.748 19.651C15.204 19.077 15.9 18.742 16.638 18.741L19.749 18.745C20.487 18.745 21.184 19.079 21.64 19.653L24.281 22.98C24.737 23.554 25.433 23.889 26.17 23.89H27.983C28.116 23.889 28.24 23.823 28.314 23.714C28.388 23.605 28.403 23.467 28.354 23.345Z" fill="#1A1F2D"/>
</svg>
