<svg width="82" height="26" viewBox="0 0 82 26" fill="none" xmlns="http://www.w3.org/2000/svg">
<path d="M37.43 17.8299C37.009 18.2559 36.502 18.5949 35.942 18.8239C35.382 19.0529 34.78 19.1689 34.172 19.1629C33.659 19.1779 33.148 19.0909 32.671 18.9059C32.194 18.7209 31.761 18.4429 31.399 18.0889C30.74 17.4179 30.36 16.4609 30.36 15.3189C30.36 13.0349 31.885 11.4719 34.172 11.4719C34.786 11.4629 35.393 11.5869 35.952 11.8339C36.511 12.0819 37.006 12.4459 37.404 12.9019L39.383 11.1949C38.093 9.66793 36.001 8.87793 34.014 8.87793C30.125 8.87793 27.368 11.4939 27.368 15.3409C27.368 17.2439 28.053 18.8469 29.209 19.9779C30.364 21.1099 32.011 21.7739 33.911 21.7739C36.378 21.7739 38.347 20.7969 39.452 19.5689L37.43 17.8299Z" fill="#1A1F2D"/>
<path d="M41.241 4H44.187V21.572H41.241V4Z" fill="#1A1F2D"/>
<path d="M58.377 16.318C58.426 15.935 58.453 15.55 58.458 15.164C58.458 11.52 56.013 8.88203 52.232 8.88203C51.398 8.86503 50.569 9.01603 49.797 9.32503C49.025 9.63303 48.326 10.092 47.743 10.674C46.638 11.805 45.975 13.408 45.975 15.319C45.975 19.214 48.789 21.778 52.52 21.778C55.024 21.778 56.826 20.788 57.907 19.447L55.977 17.78L55.881 17.7C55.498 18.168 55.01 18.543 54.455 18.796C53.899 19.05 53.291 19.175 52.678 19.162C50.784 19.162 49.418 18.084 49.028 16.318H58.377ZM49.077 14.011C49.209 13.454 49.478 12.937 49.862 12.506C50.181 12.166 50.572 11.898 51.007 11.719C51.442 11.541 51.912 11.456 52.384 11.471C54.067 11.471 55.121 12.498 55.484 14.011H49.077Z" fill="#1A1F2D"/>
<path d="M67.565 8.84399V12.049C67.224 12.023 66.881 11.997 66.672 11.997C64.442 11.997 63.177 13.56 63.177 15.611V21.572H60.235V9.02199H63.177V10.923H63.203C64.203 9.58999 65.636 8.84799 67.198 8.84799L67.565 8.84399Z" fill="#1A1F2D"/>
<path d="M74.424 16.316L72.297 18.625V21.572H69.354V4H72.297V14.779L77.551 9.062H81.046L76.423 14.112L81.127 21.572H77.816L74.479 16.316H74.424Z" fill="#1A1F2D"/>
<path d="M20.3569 3.72175L17.2899 6.71475C17.1929 6.80875 17.0669 6.86875 16.9319 6.88475C16.7969 6.89975 16.6599 6.87075 16.5429 6.80175C15.3369 6.09175 13.9449 5.73775 12.5369 5.78175C11.1279 5.82675 9.76288 6.26875 8.60588 7.05375C7.89388 7.53675 7.27588 8.13975 6.78088 8.83375C5.97688 9.96375 5.52488 11.2957 5.47888 12.6697C5.43288 14.0437 5.79488 15.4017 6.52188 16.5807C6.59188 16.6937 6.62088 16.8267 6.60488 16.9587C6.58888 17.0897 6.52788 17.2127 6.43188 17.3067L3.36488 20.2997C3.30288 20.3597 3.22888 20.4067 3.14588 20.4367C3.06388 20.4667 2.97688 20.4797 2.88888 20.4737C2.80188 20.4667 2.71688 20.4427 2.63988 20.4017C2.56288 20.3597 2.49588 20.3027 2.44388 20.2347C0.784885 18.0087 -0.0731152 15.3087 0.00488481 12.5567C0.0828848 9.80575 1.09288 7.15675 2.87588 5.02375C3.42088 4.37075 4.03188 3.77475 4.70088 3.24375C6.88688 1.50375 9.60088 0.518748 12.4209 0.442748C15.2409 0.366748 18.0069 1.20275 20.2879 2.82175C20.3589 2.87275 20.4179 2.93775 20.4609 3.01275C20.5029 3.08775 20.5289 3.17075 20.5349 3.25675C20.5419 3.34175 20.5289 3.42775 20.4989 3.50875C20.4679 3.58875 20.4199 3.66175 20.3569 3.72175Z" fill="#1A1F2D"/>
<path d="M20.355 22.08L17.287 19.087C17.191 18.993 17.065 18.934 16.929 18.918C16.794 18.902 16.657 18.931 16.541 19C15.403 19.67 14.099 20.024 12.771 20.024C11.442 20.024 10.138 19.67 9.00101 19C8.88401 18.931 8.74701 18.902 8.61201 18.918C8.47701 18.934 8.35101 18.993 8.25401 19.087L5.18701 22.08C5.12301 22.141 5.07301 22.214 5.04101 22.295C5.00901 22.377 4.99501 22.464 5.00201 22.551C5.00801 22.638 5.03401 22.722 5.07801 22.798C5.12101 22.874 5.18101 22.94 5.25401 22.99C7.43701 24.541 10.068 25.375 12.769 25.375C15.469 25.375 18.1 24.541 20.284 22.99C20.356 22.94 20.417 22.874 20.461 22.799C20.505 22.723 20.531 22.639 20.538 22.552C20.545 22.465 20.532 22.378 20.5 22.296C20.468 22.215 20.419 22.141 20.355 22.08Z" fill="#1A1F2D"/>
<path d="M12.776 16.4629C14.792 16.4629 16.426 14.8679 16.426 12.9019C16.426 10.9349 14.792 9.34094 12.776 9.34094C10.761 9.34094 9.12695 10.9349 9.12695 12.9019C9.12695 14.8679 10.761 16.4629 12.776 16.4629Z" fill="#1A1F2D"/>
</svg>
