<svg width="93" height="17" viewBox="0 0 93 17" fill="none" xmlns="http://www.w3.org/2000/svg">
<path d="M40.833 0.971018C40.908 0.988018 40.966 1.04702 40.982 1.12202L41.387 3.02402C41.399 3.07702 41.388 3.13102 41.359 3.17602C41.329 3.22102 41.282 3.25202 41.23 3.26102L37.275 3.98302C37.213 3.99302 37.149 3.97402 37.104 3.93102C37.059 3.88702 37.037 3.82502 37.045 3.76302L37.462 0.412018C37.468 0.356018 37.498 0.306019 37.544 0.274019C37.589 0.241019 37.647 0.230018 37.702 0.242018L40.833 0.971018ZM62.957 16.862C64.329 16.862 65.532 16.35 66.266 15.443C66.389 15.291 66.671 15.353 66.692 15.549L66.78 16.4C66.79 16.501 66.874 16.578 66.976 16.578H69.031C69.14 16.578 69.228 16.489 69.228 16.38V0.528018C69.229 0.475018 69.208 0.425018 69.171 0.388018C69.134 0.351018 69.084 0.330019 69.031 0.329019H66.8C66.69 0.330019 66.602 0.419018 66.603 0.528018V6.48002C66.603 6.67902 66.318 6.77202 66.178 6.63102C65.447 5.88802 64.336 5.46202 63.109 5.46202C62.52 5.46202 61.973 5.54102 61.473 5.69202V8.65402C61.98 8.14102 62.684 7.84202 63.543 7.84202C65.387 7.84202 66.581 9.19602 66.581 11.14C66.581 13.084 65.387 14.416 63.543 14.416C62.684 14.416 61.98 14.123 61.473 13.615V16.668C61.957 16.8 62.456 16.865 62.957 16.862ZM76.132 16.862C78.837 16.862 80.752 15.537 81.289 13.32C81.303 13.262 81.29 13.202 81.253 13.156C81.216 13.11 81.16 13.083 81.101 13.084H79.035C78.948 13.086 78.87 13.142 78.841 13.224C78.494 14.162 77.562 14.678 76.176 14.678C74.487 14.678 73.499 13.791 73.251 12.036C73.244 11.981 73.26 11.925 73.297 11.883C73.334 11.841 73.387 11.817 73.442 11.817L81.1 11.796C81.209 11.795 81.297 11.706 81.297 11.597V10.987C81.297 7.62402 79.257 5.46102 76.046 5.46102C72.899 5.46102 70.707 7.79802 70.707 11.184C70.707 14.525 72.942 16.862 76.132 16.862ZM76.067 7.64602C77.58 7.64602 78.578 8.54102 78.665 9.91502C78.668 9.96702 78.649 10.018 78.613 10.056C78.577 10.093 78.526 10.114 78.474 10.114H73.521C73.463 10.114 73.408 10.089 73.372 10.044C73.335 9.99902 73.32 9.94102 73.332 9.88402C73.644 8.41702 74.581 7.64602 76.067 7.64602ZM87.992 16.456C87.961 16.53 87.889 16.578 87.809 16.578H85.471C85.39 16.578 85.317 16.529 85.287 16.453L81.191 6.06102C81.166 6.00002 81.174 5.93102 81.21 5.87702C81.247 5.82202 81.308 5.78902 81.374 5.78902H83.768C83.85 5.78902 83.924 5.84002 83.953 5.91702L85.771 10.747C86.024 11.456 86.264 12.168 86.49 12.886C86.553 13.088 86.9 13.088 86.963 12.886C87.156 12.269 87.426 11.517 87.724 10.747L89.628 5.91502C89.657 5.83902 89.73 5.78902 89.811 5.78902H92.115C92.256 5.78902 92.351 5.93302 92.297 6.06402L87.992 16.456ZM0.804016 11.162C0.804016 14.591 2.93002 16.862 6.18602 16.862C8.90102 16.862 10.942 15.239 11.359 12.849C11.369 12.793 11.353 12.736 11.317 12.693C11.28 12.65 11.226 12.625 11.169 12.625H8.88002C8.78902 12.625 8.71001 12.689 8.68401 12.776C8.36001 13.861 7.45102 14.46 6.18502 14.46C4.49202 14.46 3.45102 13.193 3.45102 11.162C3.45102 9.13102 4.58001 7.84202 6.27201 7.84202C7.47801 7.84202 8.34601 8.42402 8.68401 9.54902C8.70801 9.63702 8.78802 9.69702 8.87902 9.69902H11.152C11.269 9.69902 11.361 9.59602 11.344 9.47902C10.975 7.00802 9.01001 5.46202 6.16301 5.46202C2.99501 5.46202 0.804016 7.82002 0.804016 11.162ZM19.439 5.90102C19.441 5.81002 19.378 5.73002 19.29 5.71002C18.955 5.63202 18.612 5.59302 18.268 5.59302C17.157 5.59302 16.295 6.02602 15.751 6.71902C15.625 6.88002 15.305 6.81702 15.285 6.61202L15.225 5.99002C15.215 5.88902 15.131 5.81202 15.029 5.81102H12.91C12.857 5.81202 12.807 5.83202 12.77 5.87002C12.733 5.90702 12.712 5.95702 12.712 6.01002V16.38C12.712 16.489 12.801 16.578 12.91 16.578H15.162C15.271 16.578 15.359 16.489 15.359 16.38V11.337C15.359 9.24002 16.553 8.21402 18.462 8.21402H19.242C19.351 8.21402 19.439 8.12502 19.439 8.01502V5.90102ZM19.591 11.162C19.591 14.525 22 16.841 25.32 16.841C28.64 16.841 31.049 14.525 31.049 11.162C31.049 7.79802 28.64 5.48402 25.32 5.48402C22 5.48402 19.591 7.79902 19.591 11.162ZM22.239 11.162C22.239 9.19702 23.498 7.86402 25.32 7.86402C27.143 7.86402 28.402 9.19602 28.402 11.162C28.402 13.127 27.143 14.46 25.32 14.46C23.497 14.46 22.239 13.127 22.239 11.162ZM52.484 16.862C53.856 16.862 55.059 16.35 55.793 15.443C55.916 15.291 56.198 15.353 56.219 15.549L56.307 16.4C56.317 16.501 56.401 16.578 56.503 16.578H58.558C58.668 16.578 58.756 16.489 58.755 16.38V0.528018C58.756 0.419018 58.668 0.330019 58.558 0.329019H56.327C56.274 0.330019 56.224 0.351018 56.187 0.388018C56.15 0.425018 56.13 0.475018 56.13 0.528018V6.48002C56.13 6.67902 55.845 6.77202 55.706 6.63102C54.975 5.88802 53.863 5.46202 52.636 5.46202C49.402 5.46202 47.449 7.86402 47.449 11.227C47.449 14.569 49.381 16.862 52.484 16.862ZM53.07 14.416C51.225 14.416 50.097 13.062 50.097 11.14C50.097 9.21802 51.225 7.84202 53.07 7.84202C54.915 7.84202 56.108 9.19602 56.108 11.14C56.108 13.084 54.914 14.416 53.07 14.416ZM31.866 8.18502C31.81 8.19502 31.761 8.23002 31.732 8.27902C31.703 8.32802 31.696 8.38702 31.713 8.44102L34.288 16.441C34.314 16.522 34.39 16.578 34.475 16.578H36.771C36.857 16.578 36.933 16.522 36.958 16.44L38.39 11.949C38.666 11.05 38.851 10.411 38.982 9.93302C39.04 9.72202 39.4 9.72902 39.452 9.94202C39.58 10.469 39.759 11.128 39.996 11.905L41.428 16.44C41.453 16.522 41.529 16.578 41.616 16.579H43.805C43.89 16.578 43.964 16.524 43.992 16.445L47.566 6.05302C47.587 5.99202 47.578 5.92502 47.541 5.87302C47.504 5.82102 47.444 5.79002 47.38 5.78902H45.002C44.915 5.78902 44.839 5.84602 44.814 5.92902L43.425 10.419C43.298 10.861 43.106 11.564 42.939 12.222C42.885 12.433 42.544 12.43 42.492 12.219C42.344 11.616 42.185 11.016 42.015 10.419L40.625 5.92902C40.6 5.84602 40.523 5.79002 40.437 5.79002H38.035C37.949 5.79002 37.873 5.84502 37.847 5.92702L36.415 10.419C36.192 11.108 36.031 11.634 35.893 12.202C35.841 12.414 35.515 12.414 35.468 12.2C35.338 11.602 35.191 11.009 35.027 10.419L34.267 7.92502C34.238 7.82902 34.141 7.77002 34.043 7.78802L31.866 8.18502Z" fill="#1A1F2D"/>
</svg>
