<svg width="78" height="24" viewBox="0 0 78 24" fill="none" xmlns="http://www.w3.org/2000/svg">
<path d="M0.723999 0.584C0.240999 0.974 0 1.519 0 2.22C0 2.913 0.240999 3.455 0.723999 3.844C1.206 4.234 1.775 4.429 2.428 4.429C3.074 4.429 3.637 4.232 4.115 3.838C4.594 3.445 4.834 2.906 4.834 2.22C4.834 1.519 4.594 0.974 4.115 0.584C3.637 0.195 3.074 0 2.428 0C1.775 0 1.206 0.195 0.723999 0.584ZM4.571 5.457H0.262001V17.083H4.571V5.457ZM5.546 17.083V5.258H9.342L9.536 6.555C9.999 6.002 10.558 5.597 11.211 5.34C11.827 5.099 12.443 4.978 13.058 4.978H13.172C13.681 4.986 14.151 5.046 14.58 5.159C15.009 5.272 15.418 5.463 15.806 5.731C16.193 6 16.524 6.343 16.797 6.76C17.071 7.176 17.288 7.704 17.447 8.343C17.607 8.982 17.687 9.71 17.687 10.528V17.083H13.389V10.551C13.389 9.874 13.233 9.377 12.921 9.062C12.61 8.746 12.226 8.588 11.77 8.588C11.215 8.588 10.746 8.785 10.362 9.179C9.978 9.572 9.786 10.135 9.786 10.867V17.083H5.546ZM18.501 5.258V17.083H22.742V10.867C22.742 10.135 22.934 9.572 23.318 9.179C23.702 8.785 24.171 8.588 24.726 8.588C25.182 8.588 25.565 8.746 25.877 9.062C26.189 9.377 26.344 9.874 26.344 10.551V17.083H30.642V10.528C30.642 9.71 30.562 8.982 30.403 8.343C30.243 7.704 30.027 7.176 29.753 6.76C29.479 6.343 29.149 6 28.761 5.731C28.374 5.463 27.965 5.272 27.536 5.159C27.106 5.046 26.637 4.986 26.128 4.978H26.014C25.398 4.978 24.783 5.099 24.167 5.34C23.513 5.597 22.955 6.002 22.491 6.555L22.297 5.258H18.501ZM57.398 15.845L58.8 12.631C59.339 12.99 59.89 13.272 60.453 13.479C61.015 13.685 61.454 13.81 61.769 13.852C62.085 13.895 62.455 13.928 62.881 13.952C63.664 13.952 64.055 13.761 64.055 13.379C64.055 13.013 63.649 12.795 62.835 12.725C62.357 12.709 61.895 12.659 61.45 12.573C61.006 12.487 60.563 12.347 60.122 12.152C59.681 11.958 59.299 11.718 58.976 11.434C58.653 11.149 58.391 10.785 58.19 10.341C57.989 9.897 57.888 9.399 57.888 8.845C57.888 8.16 58.036 7.56 58.332 7.046C58.629 6.532 59.032 6.129 59.541 5.837C60.05 5.544 60.612 5.328 61.228 5.188C61.844 5.048 62.505 4.978 63.212 4.978C64.131 4.978 65.005 5.106 65.834 5.363C66.662 5.62 67.361 5.971 67.931 6.415L66.107 9.044C65.814 8.853 65.403 8.69 64.874 8.555L64.773 8.53C64.226 8.39 63.728 8.32 63.28 8.32H63.212C62.528 8.32 62.186 8.514 62.186 8.904C62.186 9.044 62.252 9.173 62.385 9.289C62.509 9.399 62.711 9.46 62.991 9.474L63.052 9.476C63.584 9.492 64.078 9.535 64.534 9.605C64.99 9.675 65.459 9.8 65.942 9.979C66.424 10.158 66.837 10.388 67.179 10.668C67.521 10.949 67.8 11.321 68.017 11.784C68.233 12.248 68.341 12.779 68.341 13.379C68.341 13.948 68.244 14.46 68.051 14.916C67.857 15.372 67.593 15.751 67.259 16.055C66.924 16.359 66.525 16.614 66.062 16.82C65.598 17.027 65.11 17.175 64.597 17.264C64.084 17.354 63.542 17.399 62.972 17.399C61.946 17.399 60.92 17.261 59.894 16.984C58.868 16.707 58.036 16.328 57.398 15.845ZM68.544 5.328V8.705H70.39V12.783C70.383 13.422 70.447 13.995 70.584 14.501C70.736 15.062 70.941 15.52 71.2 15.874C71.458 16.228 71.774 16.521 72.146 16.75C72.518 16.98 72.91 17.142 73.32 17.235C73.731 17.329 74.175 17.375 74.654 17.375C75.961 17.375 77.067 17.111 77.972 16.581L77.037 13.321C76.626 13.593 76.208 13.73 75.782 13.73C75.038 13.73 74.654 13.348 74.631 12.585V8.705H77.253V5.328H74.654V1.916L70.39 2.395V5.328H68.544ZM31.402 10.955C31.402 9.748 31.689 8.68 32.263 7.753C32.837 6.826 33.608 6.119 34.577 5.633C35.546 5.146 36.627 4.902 37.82 4.902C38.626 4.902 39.42 5.05 40.203 5.346L41.141 4.128C41.267 3.963 41.368 3.827 41.445 3.722L43.432 4.221L44.546 6.001L43.053 7.812C43.79 8.653 44.159 9.638 44.159 10.768V11.002C44.143 11.75 43.953 12.47 43.589 13.163C43.224 13.857 42.711 14.445 42.05 14.928C42.544 15.216 42.956 15.539 43.286 15.898C43.617 16.256 43.851 16.609 43.988 16.955C44.124 17.302 44.214 17.588 44.255 17.814C44.297 18.04 44.318 18.266 44.318 18.492C44.318 19.232 44.197 19.902 43.953 20.502C43.71 21.101 43.382 21.6 42.967 21.997C42.553 22.395 42.063 22.728 41.497 22.996C40.93 23.265 40.34 23.458 39.724 23.575C39.108 23.692 38.459 23.75 37.775 23.75C35.715 23.75 34.138 23.232 33.044 22.196C32.056 21.261 31.562 20.011 31.562 18.445C31.562 18.281 31.565 18.114 31.573 17.943H35.609V18.024C35.609 18.408 35.655 18.734 35.746 19.003L35.768 19.064C35.875 19.376 36.036 19.61 36.253 19.765C36.469 19.921 36.699 20.03 36.942 20.093C37.186 20.155 37.463 20.186 37.775 20.186C38.375 20.186 38.88 20.04 39.291 19.748C39.701 19.456 39.906 19.037 39.906 18.492C39.906 18.017 39.741 17.635 39.411 17.347C39.093 17.07 38.59 16.926 37.904 16.915L37.82 16.914C35.875 16.914 34.319 16.377 33.152 15.302C31.985 14.227 31.402 12.778 31.402 10.955ZM37.82 13.251C38.436 13.251 38.953 13.052 39.371 12.655C39.789 12.257 39.998 11.685 39.998 10.937C39.998 10.259 39.791 9.683 39.376 9.208C38.962 8.733 38.443 8.495 37.82 8.495C37.167 8.495 36.631 8.711 36.213 9.143C35.795 9.576 35.586 10.174 35.586 10.937C35.586 11.63 35.797 12.189 36.219 12.614C36.64 13.038 37.174 13.251 37.82 13.251ZM44.782 11.194C44.782 10.361 44.905 9.595 45.152 8.898C45.399 8.201 45.73 7.615 46.144 7.139C46.558 6.664 47.041 6.261 47.592 5.93C48.143 5.599 48.722 5.358 49.33 5.206C49.938 5.054 50.562 4.978 51.2 4.978C52.226 4.978 53.159 5.147 53.999 5.486C54.838 5.825 55.536 6.314 56.09 6.953C56.645 7.591 57.029 8.37 57.242 9.289C57.332 9.679 57.377 10.088 57.379 10.516V10.645C57.379 11.198 57.314 11.79 57.185 12.421H49.125C49.269 12.904 49.6 13.276 50.117 13.537C50.634 13.798 51.162 13.928 51.701 13.928C52.841 13.928 53.829 13.609 54.665 12.97L56.763 15.389C56.087 16.036 55.294 16.524 54.386 16.855C53.478 17.187 52.518 17.352 51.508 17.352C50.573 17.352 49.708 17.231 48.914 16.99C48.12 16.748 47.411 16.384 46.788 15.897C46.165 15.41 45.675 14.766 45.318 13.964C44.96 13.161 44.782 12.238 44.782 11.194ZM52.881 8.688C52.604 8.442 52.271 8.289 51.884 8.226C51.679 8.195 51.47 8.179 51.257 8.179C51.082 8.179 50.904 8.191 50.721 8.215C50.326 8.269 49.978 8.421 49.678 8.67C49.378 8.919 49.201 9.227 49.148 9.593H53.332C53.309 9.235 53.159 8.933 52.881 8.688Z" fill="#1A1F2D"/>
</svg>
