<svg width="107" height="24" viewBox="0 0 107 24" fill="none" xmlns="http://www.w3.org/2000/svg">
<path d="M30.6 3.29201H35.358L39.393 12.956H39.578L43.614 3.29201H48.371V18.902H44.63V9.31401H44.498L40.681 18.802H38.29L34.473 9.26001H34.341V18.902H30.6V3.29201ZM49.892 18.902V7.19501H53.687V18.902H49.892ZM51.793 5.83001C51.284 5.83901 50.792 5.65301 50.42 5.31201C50.037 4.96201 49.845 4.54001 49.845 4.04601C49.845 3.55901 50.037 3.14201 50.421 2.79701C50.79 2.45101 51.283 2.26301 51.793 2.27101C52.331 2.27101 52.79 2.44601 53.166 2.79701C53.549 3.14201 53.74 3.55801 53.74 4.04601C53.74 4.54001 53.549 4.96201 53.166 5.31201C52.789 5.65701 52.332 5.83001 51.793 5.83001ZM59.022 12.225V18.902H55.227V7.19501H58.836V9.34401H58.968C59.232 8.62701 59.681 8.06601 60.317 7.65901C60.954 7.24801 61.711 7.04201 62.592 7.04201C63.429 7.04201 64.156 7.22701 64.772 7.59901C65.393 7.96501 65.894 8.49901 66.215 9.13801C66.562 9.79401 66.734 10.561 66.727 11.44V18.902H62.933V12.171C62.938 11.521 62.771 11.013 62.429 10.647C62.092 10.281 61.624 10.098 61.023 10.098C60.626 10.098 60.274 10.185 59.968 10.357C59.668 10.525 59.425 10.778 59.271 11.082C59.11 11.397 59.028 11.777 59.022 12.225ZM74.931 7.19401V9.93801H67.411V7.19501H74.93L74.931 7.19401ZM68.986 4.38901H72.781V15.22C72.781 15.449 72.817 15.634 72.889 15.777C72.963 15.91 73.08 16.015 73.223 16.074C73.368 16.13 73.541 16.158 73.743 16.158C73.889 16.158 74.04 16.145 74.201 16.12C74.366 16.089 74.49 16.064 74.573 16.043L75.147 18.734C74.967 18.785 74.71 18.848 74.379 18.925C73.994 19.008 73.601 19.056 73.207 19.069C72.318 19.109 71.555 19.008 70.919 18.764C70.287 18.516 69.803 18.13 69.468 17.606C69.136 17.082 68.976 16.424 68.986 15.632V4.38901ZM80.042 3.29201V18.902H76.248V3.29201H80.042ZM81.584 18.902V7.19501H85.378V18.902H81.584ZM83.485 5.83001C82.976 5.83901 82.483 5.65301 82.111 5.31201C81.729 4.96201 81.537 4.54001 81.537 4.04601C81.537 3.55901 81.729 3.14201 82.111 2.79701C82.481 2.45101 82.974 2.26201 83.485 2.27101C84.023 2.27101 84.481 2.44601 84.858 2.79701C85.241 3.14201 85.432 3.55801 85.432 4.04601C85.432 4.54001 85.241 4.96201 84.858 5.31201C84.481 5.65701 84.023 5.83001 83.485 5.83001ZM93.694 7.19501V9.93801H86.026V7.19501H93.694ZM87.625 18.902V6.60001C87.625 5.69601 87.799 4.94601 88.145 4.35101C88.474 3.76801 88.978 3.30001 89.588 3.01001C90.204 2.71001 90.915 2.56001 91.723 2.56001C92.25 2.56001 92.746 2.60101 93.212 2.68201C93.683 2.75801 94.032 2.82701 94.259 2.88801L93.655 5.61701C93.487 5.56501 93.316 5.52601 93.142 5.50201C92.958 5.47301 92.771 5.45801 92.584 5.45701C92.138 5.45701 91.834 5.55301 91.668 5.74701C91.502 5.93901 91.42 6.20401 91.42 6.53901V18.901H87.625V18.902ZM96.964 23.292C96.533 23.294 96.102 23.258 95.677 23.185C95.322 23.131 94.973 23.042 94.637 22.918L95.475 20.212C95.848 20.334 96.184 20.405 96.484 20.426C96.789 20.446 97.05 20.398 97.268 20.281C97.49 20.17 97.661 19.968 97.78 19.679L97.927 19.328L93.69 7.19501H97.663L99.859 15.548H99.983L102.21 7.19501H106.206L101.713 20.022C101.511 20.636 101.199 21.209 100.79 21.714C100.397 22.207 99.888 22.593 99.262 22.872C98.641 23.152 97.875 23.292 96.964 23.292ZM6.715 8.90901C6.731 6.77401 7.593 4.72901 9.118 3.20801H9.115L3.227 8.99201H3.229C3.208 9.00901 3.187 9.02701 3.168 9.04701C0.208 11.951 -0.128997 16.551 2.379 19.841L8.325 13.999L8.387 13.941C7.279 12.491 6.691 10.722 6.715 8.90901ZM23.534 8.99201V1.11101C23.534 0.901007 23.36 0.730007 23.146 0.729007H15.123C12.892 0.727007 10.751 1.59801 9.176 3.15101L9.118 3.20801L9.109 3.21601C8.359 3.97101 8.035 5.27001 8.009 6.70301C10.188 6.41401 12.395 6.98001 14.153 8.27601C15.48 9.24801 16.485 10.584 17.04 12.116C17.478 13.329 17.623 14.626 17.464 15.903C18.945 15.81 20.323 15.491 20.952 14.948L21.011 14.89L21.07 14.836C22.65 13.287 23.537 11.184 23.534 8.99201ZM21.012 14.894C18.712 17.107 15.33 17.839 12.296 16.779C11.504 16.503 10.759 16.109 10.087 15.612L4.079 21.51C7.429 23.966 12.106 23.636 15.065 20.735L21.012 14.894Z" fill="#1A1F2D"/>
</svg>
