<svg width="117" height="28" viewBox="0 0 117 28" fill="none" xmlns="http://www.w3.org/2000/svg">
<path d="M0.494995 12.0659C0.430995 12.5159 0.388995 12.9699 0.369995 13.4239H20.77C20.695 13.2859 20.607 13.1559 20.506 13.0349C17.019 8.50995 15.143 8.90195 12.459 8.78695C11.565 8.74995 10.958 8.73495 7.39599 8.73495C5.48999 8.73495 3.418 8.73995 1.4 8.74495C1.139 9.45295 0.886994 10.1399 0.763994 10.6979H11.218V12.0659H0.494995ZM20.93 14.7929H0.380995C0.401995 15.1579 0.435995 15.5179 0.484995 15.8729H19.457C20.303 15.8729 20.776 15.3909 20.93 14.7929ZM1.54999 19.604C1.54999 19.604 4.69699 27.361 13.785 27.499C19.217 27.499 23.884 24.258 26.004 19.604H1.54999ZM13.784 0.522949C8.76099 0.522949 4.39099 3.29295 2.08299 7.38795C3.85499 7.38495 5.62699 7.38395 7.39899 7.38295H7.4V7.38095C11.552 7.38095 11.706 7.39995 12.518 7.43395L13.02 7.45195C14.769 7.51095 16.919 7.69895 18.611 8.98495C19.53 9.68295 20.855 11.222 21.645 12.318C22.376 13.332 22.587 14.4979 22.09 15.6149C21.633 16.6419 20.649 17.2539 19.457 17.2539H0.807995C0.807995 17.2539 0.918993 17.727 1.08499 18.249H26.542C26.994 16.884 27.225 15.4549 27.227 14.0169C27.227 6.56395 21.209 0.522949 13.784 0.522949ZM40.736 20.993H43.904V15.658H46.215L49.054 20.992H52.551L49.369 15.1429C51.073 14.4089 52.017 12.9169 52.017 10.86C52.017 7.86895 50.05 5.94395 46.648 5.94395H40.736V20.993ZM43.904 13.1009V8.54495H46.04C47.868 8.54495 48.754 9.35995 48.754 10.86C48.754 12.351 47.868 13.1009 46.054 13.1009H43.904ZM57.401 21.2049C59.061 21.2049 60.137 20.4779 60.685 19.4279H60.773V20.993H63.728V13.3799C63.728 10.6899 61.461 9.55895 58.959 9.55895C56.266 9.55895 54.496 10.8519 54.065 12.9089L56.947 13.1449C57.16 12.3949 57.825 11.8439 58.944 11.8439C60.005 11.8439 60.612 12.3799 60.612 13.3069V13.3499C60.612 14.0779 59.844 14.1729 57.89 14.3649C55.667 14.5709 53.67 15.32 53.67 17.84C53.67 20.073 55.257 21.2049 57.401 21.2049ZM58.293 19.0449C57.335 19.0449 56.647 18.5969 56.647 17.7369C56.647 16.8559 57.371 16.4219 58.469 16.2669C59.149 16.1719 60.261 16.0099 60.634 15.7599V16.959C60.634 18.141 59.661 19.0449 58.293 19.0449ZM66.146 20.993H69.263V9.70595H66.146V20.993ZM67.712 8.25095C68.641 8.25095 69.402 7.53795 69.402 6.66395C69.402 5.79695 68.641 5.08395 67.712 5.08395C66.79 5.08395 66.03 5.79695 66.03 6.66395C66.03 7.53795 66.79 8.25095 67.712 8.25095ZM74.875 5.94395H71.759V20.993H74.875V5.94395ZM79.589 20.993H82.881L84.812 13.8939H84.95L86.882 20.993H90.182L93.232 9.70595H90.086L88.374 17.2449H88.279L86.436 9.70595H83.341L81.527 17.2889H81.425L79.683 9.70595H76.53L79.589 20.993ZM98.098 21.2049C99.759 21.2049 100.834 20.4779 101.383 19.4279H101.471V20.993H104.426V13.3799C104.426 10.6899 102.158 9.55895 99.657 9.55895C96.964 9.55895 95.194 10.8519 94.763 12.9089L97.645 13.1449C97.857 12.3949 98.523 11.8439 99.642 11.8439C100.703 11.8439 101.31 12.3799 101.31 13.3069V13.3499C101.31 14.0779 100.542 14.1729 98.588 14.3649C96.364 14.5709 94.367 15.32 94.367 17.84C94.367 20.073 95.955 21.2049 98.098 21.2049ZM98.991 19.0449C98.033 19.0449 97.345 18.5969 97.345 17.7369C97.345 16.8559 98.069 16.4219 99.167 16.2669C99.847 16.1719 100.959 16.0099 101.332 15.7599V16.959C101.332 18.141 100.359 19.0449 98.991 19.0449ZM108.366 25.2249C110.685 25.2249 111.914 24.0339 112.55 22.2119L116.918 9.72095L113.618 9.70595L111.27 17.9939H111.153L108.827 9.70595H105.549L109.58 21.3149L109.397 21.7939C108.987 22.8509 108.205 22.9019 107.107 22.5649L106.405 24.902C106.851 25.092 107.576 25.2249 108.366 25.2249Z" fill="#1A1F2D"/>
</svg>
