<svg width="105" height="33" viewBox="0 0 105 33" fill="none" xmlns="http://www.w3.org/2000/svg">
<path d="M2.75902 0.451005L13.347 6.524C13.814 6.792 14.101 7.287 14.101 7.823C14.101 8.359 13.814 8.855 13.347 9.123L2.75902 15.197C2.29202 15.465 1.71702 15.464 1.25002 15.196C0.783019 14.928 0.495019 14.433 0.494019 13.897V1.75C0.494019 1.352 0.65302 0.970005 0.93602 0.689005C1.21902 0.407005 1.60302 0.249005 2.00402 0.250005C2.26902 0.250005 2.52902 0.318005 2.75902 0.451005ZM2.75902 17.365L13.347 23.439C13.814 23.707 14.102 24.203 14.102 24.739C14.102 25.275 13.814 25.77 13.347 26.038L2.75902 32.112C2.29202 32.379 1.71702 32.379 1.25002 32.111C0.783019 31.843 0.495019 31.348 0.494019 30.812V18.665C0.494019 18.267 0.65302 17.885 0.93602 17.604C1.22002 17.323 1.60402 17.165 2.00402 17.165C2.26902 17.165 2.52902 17.234 2.75902 17.365ZM17.858 8.91L28.446 14.983C29.167 15.398 29.414 16.315 28.998 17.033C28.866 17.261 28.676 17.45 28.446 17.582L17.858 23.656C17.136 24.069 16.213 23.824 15.794 23.107C15.662 22.878 15.592 22.619 15.592 22.356V10.211C15.592 9.67401 15.88 9.17801 16.347 8.90901C16.815 8.64101 17.391 8.64201 17.858 8.91101V8.91ZM57.188 21.061C57.96 21.528 58.879 21.761 59.942 21.761C60.69 21.761 61.365 21.647 61.964 21.419C62.531 21.206 63.046 20.875 63.474 20.448C63.876 20.039 64.175 19.54 64.344 18.993L62.704 18.537C62.574 18.896 62.366 19.223 62.094 19.493C61.825 19.748 61.503 19.943 61.151 20.064C60.761 20.192 60.353 20.254 59.942 20.248C59.257 20.248 58.655 20.101 58.137 19.806C57.62 19.507 57.215 19.071 56.921 18.501C56.661 17.979 56.518 17.354 56.494 16.625H64.517V15.912C64.517 14.889 64.38 14.029 64.107 13.33C63.833 12.631 63.467 12.069 63.007 11.646C62.569 11.232 62.046 10.916 61.475 10.719C60.926 10.531 60.35 10.435 59.77 10.434C58.773 10.434 57.9 10.677 57.152 11.16C56.409 11.642 55.828 12.312 55.411 13.173C54.999 14.028 54.792 15.018 54.792 16.14C54.792 17.263 54.999 18.247 55.411 19.093C55.828 19.935 56.421 20.591 57.188 21.061ZM56.498 15.17C56.528 14.669 56.66 14.178 56.886 13.729C57.142 13.21 57.532 12.767 58.015 12.446C58.509 12.112 59.093 11.946 59.77 11.946C60.383 11.946 60.916 12.086 61.366 12.367C61.822 12.647 62.172 13.03 62.417 13.515C62.666 14 62.791 14.551 62.791 15.17H56.498ZM69.458 11.59C69.239 11.884 69.066 12.127 68.941 12.316H68.74V10.576H67.1V25.642H68.798V19.849H68.941C69.066 20.049 69.242 20.301 69.473 20.606C69.704 20.905 70.032 21.173 70.459 21.411C70.885 21.645 71.454 21.761 72.163 21.761C73.083 21.761 73.897 21.53 74.602 21.068C75.307 20.603 75.857 19.947 76.256 19.1C76.655 18.249 76.853 17.243 76.853 16.083C76.853 14.932 76.655 13.933 76.256 13.088C75.858 12.241 75.305 11.587 74.595 11.125C73.885 10.664 73.064 10.434 72.135 10.434C71.416 10.434 70.845 10.553 70.423 10.79C70.006 11.024 69.682 11.29 69.458 11.59ZM69.136 18.244C68.891 17.611 68.768 16.882 68.768 16.055C68.768 15.236 68.889 14.521 69.129 13.908C69.368 13.289 69.722 12.809 70.193 12.467C70.663 12.12 71.242 11.945 71.934 11.945C72.653 11.945 73.249 12.129 73.724 12.495C74.204 12.857 74.562 13.348 74.796 13.972C75.036 14.59 75.156 15.284 75.156 16.055C75.156 16.834 75.034 17.542 74.789 18.18C74.55 18.813 74.189 19.317 73.71 19.693C73.236 20.064 72.643 20.248 71.934 20.248C71.253 20.248 70.677 20.073 70.207 19.721C69.737 19.364 69.38 18.872 69.136 18.244ZM85.594 21.397C86.164 21.658 86.799 21.789 87.499 21.789C88.142 21.789 88.686 21.695 89.132 21.504C89.578 21.314 89.935 21.083 90.203 20.812C90.473 20.541 90.664 20.287 90.779 20.049H90.866V21.533H92.564V14.314C92.564 13.444 92.419 12.749 92.131 12.231C91.843 11.713 91.482 11.325 91.046 11.068C90.633 10.818 90.176 10.647 89.7 10.562C89.298 10.482 88.888 10.439 88.478 10.434C87.921 10.434 87.355 10.51 86.78 10.662C86.204 10.812 85.665 11.079 85.198 11.447C84.718 11.817 84.334 12.336 84.046 13.001L85.658 13.572C85.845 13.173 86.17 12.797 86.63 12.446C87.09 12.093 87.724 11.917 88.535 11.917C89.317 11.917 89.899 12.112 90.282 12.502C90.671 12.892 90.866 13.439 90.866 14.144V14.2C90.866 14.471 90.768 14.662 90.571 14.77C90.38 14.88 90.073 14.958 89.65 15.006C89.233 15.049 88.688 15.113 88.017 15.199C87.504 15.265 86.993 15.355 86.485 15.47C86.004 15.571 85.539 15.739 85.104 15.969C84.695 16.185 84.35 16.505 84.105 16.896C83.856 17.286 83.73 17.794 83.73 18.423C83.73 19.136 83.899 19.745 84.235 20.248C84.572 20.749 85.042 21.147 85.593 21.397H85.594ZM89.455 19.884C88.995 20.147 88.429 20.277 87.758 20.277C87.082 20.277 86.524 20.129 86.083 19.835C85.646 19.536 85.428 19.093 85.428 18.508C85.428 18.081 85.543 17.742 85.773 17.495C86.008 17.243 86.315 17.056 86.694 16.932C87.078 16.804 87.49 16.711 87.931 16.654C88.113 16.63 88.35 16.602 88.643 16.568C88.94 16.53 89.245 16.487 89.556 16.44C89.873 16.387 90.152 16.328 90.392 16.261C90.636 16.19 90.793 16.112 90.866 16.026V17.567C90.866 18.024 90.745 18.458 90.506 18.872C90.27 19.286 89.92 19.622 89.455 19.884ZM50.516 7.51C51.255 7.89401 51.801 8.42401 52.156 9.10001C52.511 9.77501 52.689 10.543 52.689 11.404C52.689 12.264 52.511 13.028 52.156 13.694C51.801 14.359 51.256 14.882 50.524 15.263C50.334 15.359 50.138 15.442 49.936 15.509L53.264 21.533H51.193L48.086 15.819C47.964 15.824 47.839 15.826 47.712 15.826H44.489V21.533H42.704V6.924H47.682C48.833 6.924 49.777 7.119 50.517 7.509L50.516 7.51ZM44.489 14.229H47.653C48.44 14.229 49.072 14.114 49.553 13.886C50.037 13.658 50.387 13.335 50.602 12.916C50.824 12.493 50.934 11.989 50.934 11.404C50.934 10.819 50.823 10.308 50.602 9.87C50.383 9.432 50.029 9.09501 49.546 8.85701C49.061 8.61501 48.421 8.49401 47.625 8.49401H44.488V14.228L44.489 14.229ZM95.591 25.57C95.816 25.618 96.073 25.641 96.36 25.641C96.874 25.641 97.334 25.551 97.741 25.37C98.154 25.19 98.516 24.912 98.827 24.535C99.139 24.164 99.401 23.697 99.612 23.131L104.301 10.576H102.46L99.41 19.307H99.295L96.245 10.576H94.404L98.489 21.589L98.173 22.446C97.967 23.001 97.739 23.403 97.489 23.651C97.245 23.904 96.965 24.044 96.648 24.072C96.332 24.1 95.967 24.063 95.555 23.958L95.123 25.442C95.21 25.484 95.365 25.527 95.591 25.57ZM81.14 21.533V6.925H79.442V21.533H81.14Z" fill="#1A1F2D"/>
</svg>
