<svg width="151" height="27" viewBox="0 0 151 27" fill="none" xmlns="http://www.w3.org/2000/svg">
<path d="M39.101 3.874H27.167H27.639V7.145H31.656V21.219H35.058V7.145H39.101V3.874ZM42.354 10.961V8.831H39.175V21.219H42.354V15.296C42.354 12.695 44.45 11.951 46.102 12.149V8.582C44.548 8.582 42.995 9.275 42.354 10.96V10.961ZM49.503 7.344C50.588 7.344 51.475 6.451 51.475 5.386C51.475 4.321 50.588 3.404 49.503 3.404C48.444 3.404 47.556 4.321 47.556 5.386C47.567 6.463 48.432 7.332 49.503 7.344ZM47.925 21.219H51.106V8.831H47.925V21.219ZM63.185 8.83V10.366C62.322 9.202 60.991 8.483 59.241 8.483C55.741 8.483 53.102 11.358 53.102 14.826C53.102 18.319 55.741 21.169 59.241 21.169C60.991 21.169 62.322 20.451 63.185 19.286V20.624C63.185 22.581 61.952 23.672 59.956 23.672C58.057 23.672 57.244 22.904 56.726 21.937L54.015 23.498C55.099 25.505 57.219 26.521 59.857 26.521C63.111 26.521 66.29 24.687 66.29 20.624V8.83H63.185ZM59.734 18.22C57.737 18.22 56.283 16.809 56.283 14.826C56.283 12.869 57.737 11.456 59.734 11.456C61.73 11.456 63.185 12.868 63.185 14.826C63.185 16.809 61.73 18.22 59.734 18.22ZM78.346 8.83V10.366C77.483 9.202 76.152 8.483 74.402 8.483C70.901 8.483 68.264 11.358 68.264 14.826C68.264 18.319 70.901 21.169 74.402 21.169C76.152 21.169 77.483 20.451 78.346 19.286V20.624C78.346 22.581 77.113 23.672 75.117 23.672C73.218 23.672 72.404 22.904 71.887 21.937L69.175 23.498C70.26 25.505 72.38 26.521 75.017 26.521C78.271 26.521 81.451 24.687 81.451 20.624V8.83H78.346ZM74.894 18.22C72.898 18.22 71.443 16.809 71.443 14.826C71.443 12.869 72.898 11.456 74.894 11.456C76.891 11.456 78.346 12.868 78.346 14.826C78.346 16.809 76.89 18.22 74.894 18.22ZM86.751 16.337H96.043C96.123 15.904 96.165 15.464 96.167 15.024C96.167 11.382 93.578 8.483 89.93 8.483C86.06 8.483 83.423 11.332 83.423 15.024C83.423 18.716 86.036 21.565 90.177 21.565C92.543 21.565 94.391 20.599 95.55 18.914L92.986 17.428C92.444 18.147 91.459 18.667 90.225 18.667C88.55 18.667 87.194 17.973 86.751 16.337ZM86.701 13.859C87.071 12.274 88.23 11.357 89.93 11.357C91.261 11.357 92.592 12.076 92.986 13.859H86.701ZM101.232 10.961V8.831H98.053V21.219H101.232V15.296C101.232 12.695 103.327 11.951 104.979 12.149V8.582C103.426 8.582 101.873 9.275 101.232 10.96V10.961ZM106.186 21.541C106.742 21.541 107.275 21.319 107.668 20.924C108.061 20.529 108.282 19.993 108.281 19.434C108.282 18.876 108.061 18.34 107.668 17.945C107.275 17.55 106.742 17.328 106.186 17.329C105.63 17.328 105.097 17.55 104.704 17.945C104.311 18.34 104.091 18.876 104.091 19.434C104.09 19.993 104.311 20.529 104.704 20.924C105.097 21.319 105.63 21.541 106.186 21.541ZM119.548 3.874V10.292C118.66 9.152 117.354 8.483 115.555 8.483C112.252 8.483 109.54 11.332 109.54 15.024C109.54 18.716 112.252 21.565 115.555 21.565C117.354 21.565 118.66 20.896 119.548 19.757V21.219H122.727V3.874H119.548ZM116.146 18.518C114.174 18.518 112.72 17.106 112.72 15.024C112.72 12.943 114.174 11.531 116.146 11.531C118.093 11.531 119.548 12.942 119.548 15.024C119.548 17.105 118.093 18.518 116.146 18.518ZM127.829 16.337H137.122C137.202 15.904 137.243 15.464 137.245 15.024C137.245 11.382 134.657 8.483 131.009 8.483C127.139 8.483 124.502 11.332 124.502 15.024C124.502 18.716 127.114 21.565 131.256 21.565C133.622 21.565 135.471 20.599 136.629 18.914L134.066 17.428C133.524 18.147 132.537 18.667 131.305 18.667C129.628 18.667 128.273 17.973 127.829 16.337ZM127.78 13.859C128.15 12.274 129.308 11.357 131.009 11.357C132.34 11.357 133.671 12.076 134.066 13.859H127.78ZM146.834 8.83L143.827 17.502L140.844 8.83H137.344L142.027 21.218H145.651L150.335 8.83H146.834ZM7.18102 9.136L11.939 0.854004L23.726 21.379H0.150024L4.90602 13.097L8.27102 15.05L6.87902 17.472H16.996L11.938 8.665L10.546 11.088L7.18102 9.136Z" fill="#1A1F2D"/>
</svg>
