<svg width="62" height="21" viewBox="0 0 62 21" fill="none" xmlns="http://www.w3.org/2000/svg">
<g clip-path="url(#clip0_1_1107)">
<g clip-path="url(#clip1_1_1107)">
<path d="M29.579 17.896L29.564 17.928C28.691 19.605 27.306 20.42 25.328 20.42C22.766 20.42 20.906 18.613 20.906 16.126C20.906 13.716 22.709 12.009 25.5 11.775L29.425 11.442L29.477 11.439V10.47C29.477 9.054 28.687 8.305 27.193 8.305C25.704 8.305 24.77 9.069 24.742 10.301H21.381C21.514 7.481 23.788 5.733 27.332 5.733C30.798 5.733 32.785 7.479 32.785 10.525V17.513H35.178V20.087H29.811L29.783 17.954V17.896H29.579ZM29.477 14.574V13.956L26.289 14.231C26.216 14.24 24.497 14.439 24.093 15.189C23.912 15.527 23.879 15.953 24.004 16.359C24.105 16.692 24.36 17.161 24.988 17.492C25.287 17.676 25.681 17.79 26.16 17.83L26.211 17.837C26.236 17.841 26.263 17.844 26.29 17.847L26.328 17.842C26.402 17.845 26.475 17.847 26.553 17.847C28.275 17.847 29.477 16.501 29.477 14.574ZM8.422 1.283C8.473 1.289 8.523 1.296 8.565 1.305C10.021 1.496 11.356 2.207 12.322 3.304C14.423 5.693 14.305 9.288 12.05 11.536C10.918 12.665 9.379 13.3 7.773 13.3C7.716 13.3 7.66 13.297 7.604 13.293C7.572 13.29 7.541 13.289 7.509 13.287H3.523V20.09H0V1.247H7.788L7.802 1.249C8.003 1.249 8.205 1.259 8.407 1.28L8.422 1.283ZM9.469 4.339H3.523V10.262H9.469V4.337V4.339Z" fill="#1A1F23"/>
<path d="M15.493 20.11H18.879V1.191H15.493V20.11ZM36.866 4.598H40.229V1.247H36.866V4.598ZM54.789 20.087V10.887C54.789 7.514 53.202 5.733 50.198 5.733C48.318 5.733 46.96 6.503 46.046 8.087L45.937 8.275V6.064H42.575V20.087H45.938V11.967C45.938 9.827 47.163 8.444 49.058 8.444C50.651 8.444 51.426 9.324 51.426 11.135V20.087H54.789ZM57.08 20.087H61.44V15.744H57.08V20.087ZM40.22 20.11H36.834V6.1H40.22V20.11Z" fill="#1A1F23"/>
</g>
</g>
<defs>
<clipPath id="clip0_1_1107">
<rect width="62" height="20" fill="white" transform="translate(0 0.5)"/>
</clipPath>
<clipPath id="clip1_1_1107">
<rect width="62" height="20" fill="white" transform="translate(0 0.5)"/>
</clipPath>
</defs>
</svg>
