<svg width="339" height="279" viewBox="0 0 339 279" fill="none" xmlns="http://www.w3.org/2000/svg">
<g clip-path="url(#clip0_1_771)">
<path fill-rule="evenodd" clip-rule="evenodd" d="M168.305 54.1107C168.995 54.1057 169.685 54.1057 170.375 54.1107L170.154 83.8015C169.611 83.7977 169.069 83.7977 168.526 83.8015L168.305 54.1107ZM72.0339 94.8426C72.5164 94.3527 73.0018 93.8672 73.4918 93.3847L94.3298 114.538C93.9459 114.916 93.5648 115.297 93.1867 115.681L72.0339 94.8426ZM265.188 93.3847C265.678 93.8672 266.164 94.3527 266.646 94.8426L245.493 115.681C245.115 115.297 244.734 114.916 244.35 114.538L265.188 93.3847ZM305.92 189.656C305.926 190.346 305.926 191.036 305.92 191.726L276.229 191.504C276.232 190.962 276.232 190.42 276.229 189.877L305.92 189.656ZM32.7554 190.691C32.7554 190.346 32.7554 190.001 32.7598 189.656L62.4507 189.877C62.4468 190.42 62.4468 190.962 62.4507 191.504L32.7584 191.726C32.7561 191.381 32.7551 191.036 32.7554 190.691ZM73.4918 287.997C73.0018 287.515 72.5164 287.029 72.0339 286.539L93.1867 265.701C93.5652 266.086 93.9453 266.466 94.3298 266.844L73.4918 287.997ZM266.646 286.539C266.164 287.029 265.678 287.515 265.188 287.997L244.35 266.844C244.735 266.466 245.115 266.086 245.493 265.701L266.646 286.539Z" fill="white"/>
<path opacity="0.5" fill-rule="evenodd" clip-rule="evenodd" d="M169.34 74.8911L168.636 74.8926L168.565 63.0156C169.082 63.0124 169.598 63.0124 170.115 63.0156L170.044 74.8926L169.34 74.8911ZM151.903 76.1946C151.441 76.2643 150.98 76.3371 150.518 76.4113L148.604 64.6903C149.112 64.6071 149.621 64.527 150.131 64.4498L151.903 76.1946ZM188.162 76.4113C187.7 76.3371 187.238 76.2629 186.777 76.1946L188.549 64.4513C189.059 64.527 189.568 64.6071 190.076 64.6903L188.162 76.4113ZM134.208 80.3144C133.763 80.4554 133.319 80.6009 132.876 80.7464L129.14 69.4737C129.628 69.3104 130.118 69.153 130.609 68.9957L134.208 80.3144ZM205.804 80.7464C205.361 80.5996 204.917 80.4556 204.472 80.3144L208.071 68.9957C208.562 69.1515 209.052 69.3119 209.54 69.4737L205.804 80.7464ZM222.541 87.8072C222.127 87.5926 221.712 87.3808 221.296 87.1718L226.631 76.5598C227.092 76.7914 227.55 77.0259 228.006 77.262L222.541 87.8072ZM117.384 87.1718C116.969 87.3797 116.553 87.5934 116.137 87.8072L110.674 77.262C111.13 77.0245 111.588 76.7914 112.047 76.5598L117.384 87.1718ZM237.969 97.4097C237.594 97.1322 237.217 96.8575 236.838 96.5858L243.77 86.9417C244.187 87.2416 244.603 87.5444 245.017 87.8488L237.969 97.4097ZM101.84 96.5858C101.462 96.8589 101.085 97.1336 100.709 97.4097L93.6632 87.8488C94.0774 87.5444 94.4931 87.2416 94.9103 86.9417L101.84 96.5858ZM251.717 109.304C251.389 108.972 251.059 108.642 250.727 108.314L259.075 99.8668C259.44 100.228 259.804 100.591 260.164 100.956L251.717 109.304ZM87.9534 108.314C87.6214 108.642 87.2914 108.973 86.9631 109.304L78.5157 100.956C78.8764 100.591 79.2402 100.228 79.6054 99.8668L87.9534 108.314ZM263.445 123.192C263.172 122.813 262.897 122.436 262.621 122.06L272.182 115.014C272.487 115.428 272.789 115.844 273.089 116.261L263.445 123.192ZM76.0586 122.06C75.7825 122.436 75.5078 122.813 75.2347 123.192L65.5906 116.261C65.8905 115.844 66.1934 115.428 66.4977 115.014L76.0586 122.06ZM272.859 138.735C272.65 138.32 272.438 137.904 272.224 137.488L282.769 132.025C283.005 132.481 283.24 132.94 283.471 133.398L272.859 138.735ZM66.4561 137.488C66.2424 137.904 66.0301 138.32 65.8207 138.735L55.2087 133.398C55.4403 132.938 55.6749 132.481 55.9109 132.025L66.4561 137.488ZM279.717 155.559C279.576 155.114 279.43 154.67 279.285 154.227L290.557 150.491C290.719 150.979 290.88 151.469 291.035 151.96L279.717 155.559ZM59.3953 154.227C59.2483 154.67 59.1043 155.114 58.9633 155.559L47.6446 151.96C47.8005 151.469 47.9608 150.979 48.1226 150.491L59.3953 154.227ZM55.0602 171.869C54.986 172.331 54.9118 172.793 54.8435 173.254L43.1002 171.482C43.1759 170.972 43.2561 170.463 43.3392 169.955L55.0602 171.869ZM283.836 173.254C283.767 172.793 283.694 172.331 283.62 171.869L295.341 169.955C295.424 170.463 295.504 170.972 295.581 171.482L283.836 173.254ZM53.543 189.987C53.5403 190.456 53.5403 190.925 53.543 191.393L41.666 191.463C41.6631 190.947 41.6631 190.432 41.666 189.916L53.543 189.987ZM285.14 190.691L285.139 189.987L297.014 189.916L297.017 190.691L297.014 191.463L285.139 191.393L285.14 190.691ZM54.842 208.12C54.9118 208.582 54.9845 209.042 55.0588 209.503L43.3377 211.416C43.2546 210.91 43.1744 210.401 43.0987 209.892L54.842 208.12ZM283.621 209.503C283.695 209.042 283.768 208.582 283.838 208.12L295.581 209.892C295.506 210.401 295.425 210.91 295.342 211.416L283.621 209.503ZM58.9588 225.808C59.0999 226.254 59.2439 226.696 59.3894 227.138L48.1167 230.874C47.955 230.386 47.7961 229.897 47.6401 229.407L58.9588 225.808ZM279.289 227.138C279.436 226.696 279.58 226.254 279.721 225.808L291.04 229.407C290.884 229.897 290.725 230.385 290.563 230.874L279.289 227.138ZM65.8103 242.627C66.0182 243.043 66.232 243.459 66.4458 243.873L55.899 249.335C55.663 248.879 55.4299 248.42 55.1983 247.962L65.8103 242.627ZM272.234 243.873C272.448 243.459 272.66 243.043 272.87 242.627L283.482 247.962C283.25 248.42 283.017 248.879 282.781 249.335L272.234 243.873ZM262.638 259.298C262.915 258.923 263.188 258.545 263.462 258.167L273.107 265.096C272.807 265.513 272.505 265.929 272.2 266.343L262.638 259.298ZM75.2198 258.167C75.4915 258.545 75.7647 258.923 76.0423 259.298L66.4799 266.343C66.1752 265.929 65.8729 265.513 65.5728 265.096L75.2198 258.167ZM86.9394 272.054L87.4323 272.55L79.0323 280.945C78.8506 280.764 78.6694 280.582 78.489 280.399L86.9394 272.054ZM251.248 272.55L251.741 272.054L260.191 280.399C260.011 280.582 259.83 280.764 259.648 280.945L251.248 272.55Z" fill="white"/>
<path fill-rule="evenodd" clip-rule="evenodd" d="M169.34 84.5408C110.716 84.5408 63.19 132.066 63.19 190.691C63.19 220.07 75.1248 246.659 94.4115 265.881L93.3633 266.932C73.808 247.445 61.7054 220.48 61.7054 190.691C61.7054 131.247 109.896 83.0562 169.34 83.0562C228.785 83.0562 276.975 131.247 276.975 190.691C276.975 220.48 264.872 247.445 245.317 266.932L244.269 265.881C263.555 246.659 275.49 220.07 275.49 190.691C275.49 132.066 227.964 84.5408 169.34 84.5408Z" fill="white"/>
</g>
<defs>
<clipPath id="clip0_1_771">
<rect width="386" height="386" fill="white" transform="translate(-23.66 0.660156)"/>
</clipPath>
</defs>
</svg>
