<svg width="179" height="27" viewBox="0 0 179 27" fill="none" xmlns="http://www.w3.org/2000/svg">
<path d="M0 0.25H26.054V26.118H0V0.25ZM2.664 2.895V23.473H23.389V2.895H2.664ZM47.623 15.461H44.817C44.409 17.985 42.706 19.438 40.356 19.438C37.238 19.438 35.2 17.032 35.2 13.199C35.2 9.412 37.166 6.959 40.188 6.959C42.635 6.959 44.242 8.389 44.697 10.96H47.504C46.952 7.197 43.906 4.745 40.092 4.745C35.511 4.745 32.345 8.508 32.345 13.199C32.345 18.033 35.583 21.652 40.164 21.652C43.978 21.652 47.048 19.223 47.623 15.461ZM60.5 15.461C60.5 12.246 58.27 9.269 54.624 9.269C50.978 9.269 48.748 12.246 48.748 15.461C48.748 18.676 50.978 21.653 54.624 21.653C58.27 21.653 60.5 18.676 60.5 15.461ZM51.506 15.461C51.506 12.913 52.633 11.198 54.624 11.198C56.638 11.198 57.765 12.913 57.765 15.461C57.765 17.986 56.638 19.724 54.624 19.724C52.633 19.724 51.506 17.986 51.506 15.461ZM70.702 18.914H70.63C70.054 20.557 68.664 21.653 66.841 21.653C63.579 21.653 61.804 18.795 61.804 15.461C61.804 12.127 63.651 9.269 66.841 9.269C68.664 9.269 70.054 10.341 70.63 11.984H70.702V4.983H73.268V21.414H70.702V18.914ZM67.68 11.198C65.689 11.198 64.562 12.913 64.562 15.461C64.562 17.985 65.689 19.724 67.68 19.724C69.695 19.724 70.798 17.985 70.798 15.461C70.798 12.913 69.695 11.198 67.68 11.198ZM86.171 17.724H83.557C83.269 18.676 82.598 19.724 81.038 19.724C79.216 19.724 77.945 18.461 77.825 16.294H86.387C86.747 12.151 84.397 9.269 80.823 9.269C77.249 9.269 75.211 12.174 75.211 15.461C75.211 18.747 77.297 21.653 80.871 21.653C83.797 21.653 85.668 20.081 86.171 17.724ZM80.823 11.198C82.573 11.198 83.605 12.437 83.773 14.365H77.849C78.017 12.437 79.072 11.198 80.823 11.198ZM96.508 11.96C99.626 12.675 101.185 14.294 101.185 16.89C101.185 19.628 98.498 21.652 94.66 21.652C90.271 21.652 87.897 18.604 87.633 15.628H90.439C90.607 17.771 92.358 19.438 94.685 19.438C96.795 19.438 98.354 18.533 98.354 17.009C98.354 15.676 97.347 14.961 95.212 14.461L92.814 13.913C89.575 13.151 87.969 11.651 87.969 9.364C87.969 6.602 90.703 4.745 94.037 4.745C98.259 4.745 100.417 7.031 100.705 9.865H97.899C97.682 7.912 96.027 6.959 94.085 6.959C92.19 6.959 90.823 7.769 90.823 9.174C90.823 10.293 91.663 10.817 94.108 11.389L96.508 11.96ZM111.273 18.914H111.345V21.414H113.912V9.507H111.345V11.984H111.273C110.697 10.342 109.306 9.269 107.483 9.269C104.293 9.269 102.447 12.127 102.447 15.461C102.447 18.795 104.222 21.653 107.483 21.653C109.306 21.653 110.697 20.557 111.273 18.914ZM105.205 15.461C105.205 12.913 106.356 11.198 108.299 11.198C110.241 11.198 111.441 12.913 111.441 15.461C111.441 17.986 110.241 19.724 108.299 19.724C106.38 19.724 105.205 17.986 105.205 15.461ZM119.139 14.27V21.414H116.524V9.507H119.067V11.841H119.115C119.619 10.174 120.866 9.269 122.616 9.269C125.256 9.269 126.55 11.056 126.55 13.675V21.414H123.935V14.436C123.935 12.222 123.145 11.222 121.537 11.222C119.931 11.222 119.139 12.317 119.139 14.27ZM137.244 18.914H137.316V21.414H139.882V4.984H137.316V11.985H137.244C136.668 10.342 135.277 9.27 133.455 9.27C130.264 9.27 128.418 12.128 128.418 15.461C128.418 18.795 130.193 21.654 133.455 21.654C135.277 21.654 136.668 20.558 137.244 18.915V18.914ZM131.176 15.461C131.176 12.913 132.303 11.198 134.294 11.198C136.308 11.198 137.412 12.913 137.412 15.461C137.412 17.985 136.308 19.724 134.294 19.724C132.303 19.724 131.176 17.985 131.176 15.461ZM148.923 9.269C152.113 9.269 153.96 12.127 153.96 15.461C153.96 18.795 152.185 21.653 148.923 21.653C147.101 21.653 145.709 20.557 145.134 18.914H145.062V21.414H142.496V4.984H145.062V11.985H145.134C145.709 10.342 147.101 9.27 148.923 9.27V9.269ZM148.084 11.198C146.069 11.198 144.966 12.913 144.966 15.461C144.966 17.985 146.069 19.724 148.084 19.724C150.075 19.724 151.202 17.985 151.202 15.461C151.202 12.913 150.075 11.198 148.084 11.198ZM167.03 15.461C167.03 12.246 164.799 9.269 161.154 9.269C157.508 9.269 155.278 12.246 155.278 15.461C155.278 18.676 157.508 21.653 161.154 21.653C164.799 21.653 167.03 18.676 167.03 15.461ZM158.036 15.461C158.036 12.913 159.164 11.198 161.154 11.198C163.169 11.198 164.296 12.913 164.296 15.461C164.296 17.986 163.169 19.724 161.154 19.724C159.164 19.724 158.036 17.986 158.036 15.461ZM172.883 16.794L169.694 21.414H166.744L171.349 15.009L167.343 9.507H170.293L172.883 13.223L175.474 9.507H178.4L174.419 14.985L179 21.414H176.073L172.883 16.794Z" fill="#1A1F2D"/>
</svg>
