<svg width="110" height="31" viewBox="0 0 110 31" fill="none" xmlns="http://www.w3.org/2000/svg">
<g clip-path="url(#clip0_1_1064)">
<g clip-path="url(#clip1_1_1064)">
<path d="M16.02 0.890625H0V4.19563H16.02V0.890625Z" fill="#5E7182"/>
<path d="M32.039 7.50098H9.61102V10.806H32.039V7.50098Z" fill="#5E7182"/>
<path d="M35.243 14.1113H9.61102V17.4163H35.243V14.1113Z" fill="#5E7182"/>
<path d="M32.039 20.7217H9.61102V24.0267H32.039V20.7217Z" fill="#5E7182"/>
<path d="M25.63 27.332H9.61102V30.637H25.63V27.332Z" fill="#5E7182"/>
<path d="M46.973 1.64763H45.222V0.890625H49.669V1.64763H47.918V13.0606H49.669V13.8176H45.222V13.0606H46.973V1.64763Z" fill="#5E7182"/>
<path d="M50.211 13.064H51.608V5.26295H50.211V4.50595H52.557V5.96695H52.592C53.065 4.84695 53.94 4.25195 55.236 4.25195C57.144 4.25195 57.949 5.35295 57.949 7.69995V13.064H59.244V13.821H55.498V13.064H57.004V7.69995C57.004 5.85695 56.321 5.00895 54.938 5.00895C53.537 5.00895 52.554 6.34495 52.554 8.51295V13.063H53.955V13.82H50.211V13.064Z" fill="#5E7182"/>
<path d="M66.65 1.64763H65.145V0.890625H67.596V13.0636H68.804V13.8206H66.65V12.2386H66.615C65.882 13.6106 65.039 14.0806 63.657 14.0806C62.204 14.0806 60.082 13.1416 60.082 9.16763C60.082 6.31463 61.36 4.25563 63.657 4.25563C65.004 4.25563 66.003 4.83363 66.615 6.07963H66.65V1.64763ZM63.955 13.3146C66.038 13.3146 66.755 11.1646 66.755 8.99763C66.755 5.89163 65.162 5.00663 63.955 5.00663C62.011 5.00663 61.031 6.86662 61.031 9.15963C61.031 11.4536 62.011 13.3166 63.955 13.3166V13.3146Z" fill="#5E7182"/>
<path d="M70.59 9.34395C70.625 11.764 71.675 13.316 73.513 13.316C74.861 13.316 75.896 12.683 76.157 11.04H77C76.667 13.081 75.35 14.074 73.517 14.074C70.874 14.074 69.648 12.015 69.648 9.16095C69.648 6.30795 70.87 4.25195 73.517 4.25195C76.175 4.25195 77.176 6.72595 77.176 9.34395H70.59ZM76.227 8.58695C76.175 6.36395 75.194 5.00995 73.391 5.00995C71.798 5.00995 70.767 6.46995 70.59 8.58595L76.227 8.58695Z" fill="#5E7182"/>
<path d="M77.838 13.0637H78.625L81.515 9.02274L78.856 5.26674H78.086V4.51074H81.167V5.26674H79.904L82.092 8.37374L84.316 5.26674H83.195V4.51074H86.277V5.26674H85.366L82.67 9.02274L85.558 13.0687H86.35V13.8247H83.265V13.0687H84.508L82.092 9.67374L79.676 13.0687H80.92V13.8247H77.838V13.0637Z" fill="#5E7182"/>
<path d="M44.801 17.707H48.828V18.464H46.955L50.666 29.552H50.702L54.412 18.464H52.54V17.707H56.566V18.464H55.466L51.262 30.638H50.106L45.905 18.466H44.805L44.801 17.707Z" fill="#5E7182"/>
<path d="M56.987 26.1585C57.023 28.5795 58.073 30.1305 59.912 30.1305C61.259 30.1305 62.295 29.4975 62.555 27.8545H63.395C63.063 29.8955 61.745 30.8885 59.912 30.8885C57.268 30.8885 56.042 28.8295 56.042 25.9775C56.042 23.1245 57.268 21.0645 59.912 21.0645C62.57 21.0645 63.57 23.5385 63.57 26.1565L56.987 26.1585ZM62.625 25.4025C62.573 23.1805 61.593 21.8265 59.789 21.8265C58.196 21.8265 57.162 23.2895 56.987 25.4025H62.625Z" fill="#5E7182"/>
<path d="M64.306 29.8794H65.707V22.0774H64.306V21.3204H66.652V22.7814H66.687C67.16 21.6624 68.035 21.0664 69.33 21.0664C71.239 21.0664 72.044 22.1674 72.044 24.5154V29.8794H73.34V30.6364H69.593V29.8794H71.098V24.5154C71.098 22.6734 70.416 21.8244 69.032 21.8244C67.633 21.8244 66.649 23.1604 66.649 25.3284V29.8794H68.05V30.6364H64.306V29.8794Z" fill="#5E7182"/>
<path d="M75.266 19.3308L76.211 18.9688V21.3168H78.644V22.0728H76.211V28.5978C76.211 29.7328 76.649 30.1328 77.104 30.1328C77.821 30.1328 78.19 29.4998 78.19 28.3438V28.1458H78.923V28.4888C78.923 29.9158 78.223 30.8908 77.016 30.8908C75.79 30.8908 75.265 30.1688 75.265 28.8108V22.0778H73.655V21.3208H75.266V19.3308Z" fill="#5E7182"/>
<path d="M79.52 21.3164H81.761V27.4394C81.761 29.2804 82.444 30.1294 83.826 30.1294C85.175 30.1294 86.21 28.8644 86.21 26.7344V22.0774H84.806V21.3204H87.153V29.8814H88.55V30.6374H86.203V29.1204H86.168C85.695 30.2404 84.733 30.8904 83.525 30.8904C81.617 30.8904 80.811 29.7884 80.811 27.4414V22.0774H79.52V21.3164Z" fill="#5E7182"/>
<path d="M89.079 29.8796H90.48V22.0776H89.079V21.3206H91.425V22.9806H91.461C91.827 21.7346 92.756 21.0666 93.824 21.0666C93.988 21.0606 94.153 21.0786 94.313 21.1206V21.9876C94.176 21.9486 94.035 21.9306 93.893 21.9336C92.231 21.9336 91.425 23.3596 91.425 25.3286V29.8796H93.141V30.6366H89.079V29.8796Z" fill="#5E7182"/>
<path d="M95.994 26.1585C96.029 28.5795 97.079 30.1305 98.917 30.1305C100.266 30.1305 101.301 29.4975 101.561 27.8545H102.402C102.069 29.8955 100.756 30.8885 98.918 30.8885C96.275 30.8885 95.05 28.8295 95.05 25.9775C95.05 23.1245 96.275 21.0645 98.918 21.0645C101.577 21.0645 102.578 23.5385 102.578 26.1565L95.994 26.1585ZM101.632 25.4025C101.579 23.1805 100.599 21.8265 98.795 21.8265C97.202 21.8265 96.169 23.2895 95.994 25.4025H101.632Z" fill="#5E7182"/>
<path d="M103.698 27.3684H104.431C104.501 29.2284 105.499 30.1314 106.847 30.1314C108.194 30.1314 109.053 29.3904 109.053 28.1084C109.053 26.9884 108.563 26.6094 107.11 26.3754L105.971 26.1944C104.572 25.9414 103.784 25.2734 103.784 23.9734C103.784 22.0954 105.166 21.0654 106.689 21.0654C107.81 21.0654 108.65 21.4624 109.088 22.4194H109.123V21.3164H109.856V24.5124H109.123V24.0064C109.123 22.5984 108.143 21.8224 106.831 21.8224C105.536 21.8224 104.73 22.6524 104.73 23.8444C104.73 24.8194 105.43 25.1994 106.323 25.3434L107.637 25.5594C109.3 25.8314 110 26.6074 110 28.0184C110 29.9324 108.792 30.8894 106.883 30.8894C105.692 30.8894 104.867 30.4384 104.45 29.3904H104.432V30.6374H103.699L103.698 27.3684Z" fill="#5E7182"/>
</g>
</g>
<defs>
<clipPath id="clip0_1_1064">
<rect width="110" height="30" fill="white" transform="translate(0 0.890625)"/>
</clipPath>
<clipPath id="clip1_1_1064">
<rect width="110" height="30" fill="white" transform="translate(0 0.890625)"/>
</clipPath>
</defs>
</svg>
