<svg width="73" height="17" viewBox="0 0 73 17" fill="none" xmlns="http://www.w3.org/2000/svg">
<path d="M63.064 16.037C63.897 16.554 64.843 16.812 65.902 16.812C66.463 16.812 66.993 16.739 67.492 16.591C67.976 16.443 68.436 16.226 68.855 15.948C69.18 15.725 69.452 15.482 69.672 15.222L69.74 16.591H72.806V0.187988H69.559V6.10699C69.364 5.90999 69.152 5.73199 68.923 5.57399C68.496 5.26999 68.02 5.03699 67.515 4.88699C66.997 4.70899 66.451 4.61899 65.902 4.62099C64.843 4.62099 63.897 4.88699 63.064 5.41899C62.246 5.93599 61.595 6.65999 61.11 7.59099C60.641 8.50699 60.406 9.54899 60.406 10.717C60.406 11.914 60.641 12.97 61.11 13.886C61.595 14.788 62.246 15.505 63.064 16.037ZM68.219 13.753C67.764 14.049 67.235 14.197 66.629 14.197C66.023 14.197 65.494 14.049 65.04 13.753C64.601 13.458 64.252 13.052 63.995 12.534C63.753 12.017 63.631 11.411 63.631 10.717C63.631 10.037 63.753 9.43799 63.995 8.92099C64.252 8.40399 64.601 7.99799 65.04 7.70199C65.494 7.40599 66.023 7.25899 66.629 7.25899C67.235 7.25899 67.764 7.40599 68.219 7.70199C68.673 7.99799 69.029 8.40399 69.286 8.92099C69.544 9.43799 69.672 10.037 69.672 10.717C69.672 11.411 69.544 12.017 69.286 12.534C69.029 13.052 68.673 13.458 68.219 13.753ZM9.72 1.73899C8.917 1.29599 8.025 1.07399 7.04 1.07399H0V16.591H3.293V11.027H5.805L9.016 16.591L12.968 16.613L9.365 10.541C9.486 10.485 9.603 10.426 9.72 10.362C10.502 9.93899 11.153 9.31799 11.605 8.56699C12.074 7.79799 12.309 6.94799 12.309 6.01699C12.309 5.07199 12.074 4.22899 11.604 3.48999C11.15 2.75099 10.499 2.14599 9.72 1.73899ZM7.949 8.05699C7.646 8.23399 7.289 8.32299 6.881 8.32299H3.293V3.95599H6.45C6.951 3.95599 7.389 4.05199 7.768 4.24399C8.147 4.42099 8.434 4.67299 8.631 4.99799C8.828 5.32299 8.927 5.70699 8.927 6.14999C8.932 6.54099 8.846 6.92699 8.676 7.28099C8.51 7.60599 8.267 7.86499 7.949 8.05699ZM16.139 16.037C17.123 16.554 18.266 16.812 19.568 16.812C20.114 16.812 20.666 16.746 21.226 16.613C21.791 16.478 22.339 16.285 22.861 16.037C23.392 15.771 23.877 15.446 24.315 15.061L22.771 12.955C22.271 13.354 21.801 13.635 21.363 13.798C20.924 13.96 20.439 14.042 19.91 14.042C19.136 14.042 18.463 13.901 17.888 13.62C17.327 13.325 16.889 12.919 16.571 12.401C16.395 12.098 16.27 11.768 16.201 11.426H24.769L24.792 10.451C24.822 9.62299 24.701 8.85499 24.428 8.14499C24.174 7.44999 23.772 6.81599 23.248 6.28299C22.747 5.74999 22.135 5.32699 21.453 5.04199C20.757 4.74599 20 4.59899 19.183 4.59899C18.304 4.59899 17.487 4.75399 16.73 5.06399C15.999 5.35199 15.34 5.79099 14.799 6.34999C14.245 6.90999 13.813 7.57399 13.527 8.30099C13.224 9.05399 13.073 9.88899 13.073 10.805C13.073 11.973 13.338 13.007 13.869 13.909C14.413 14.81 15.17 15.519 16.139 16.037ZM16.229 9.49699C16.289 9.23999 16.373 9.00399 16.48 8.78799C16.722 8.29999 17.071 7.93099 17.524 7.67999C17.994 7.42899 18.562 7.30299 19.228 7.30299C19.682 7.30299 20.091 7.39899 20.454 7.59099C20.818 7.76799 21.113 8.01999 21.34 8.34499C21.582 8.65499 21.719 9.00999 21.749 9.40899V9.49699H16.229ZM30.082 16.812C28.962 16.812 27.962 16.635 27.084 16.28C26.221 15.911 25.525 15.409 24.995 14.773L27.016 13.088C27.471 13.576 27.985 13.931 28.56 14.152C29.112 14.355 29.696 14.46 30.286 14.463C30.513 14.463 30.718 14.441 30.9 14.396C31.097 14.337 31.264 14.263 31.4 14.175C31.535 14.071 31.634 13.953 31.694 13.82C31.77 13.672 31.808 13.517 31.808 13.354C31.808 13.029 31.672 12.778 31.4 12.601C31.248 12.512 31.013 12.416 30.695 12.313C30.377 12.194 29.968 12.069 29.469 11.936C28.697 11.744 28.038 11.522 27.493 11.271C26.963 11.005 26.539 10.709 26.221 10.384C25.957 10.086 25.742 9.74999 25.585 9.38699C25.445 8.99499 25.376 8.58199 25.38 8.16699C25.38 7.63499 25.502 7.15499 25.744 6.72699C25.987 6.28299 26.32 5.90599 26.743 5.59599C27.183 5.28599 27.683 5.04899 28.243 4.88699C28.815 4.70799 29.413 4.61799 30.014 4.62099C30.627 4.61999 31.237 4.69399 31.831 4.84199C32.422 4.98999 32.966 5.20499 33.466 5.48499C33.981 5.75099 34.428 6.06899 34.806 6.43799L33.08 8.29999C32.807 8.04899 32.497 7.81999 32.148 7.61299C31.816 7.40599 31.467 7.24399 31.104 7.12599C30.741 7.00699 30.415 6.94799 30.128 6.94799C29.87 6.94799 29.636 6.96999 29.423 7.01499C29.226 7.05899 29.06 7.13299 28.924 7.23599C28.788 7.32499 28.681 7.43599 28.606 7.56899C28.545 7.70199 28.515 7.84999 28.515 8.01199C28.515 8.17499 28.553 8.32999 28.628 8.47799C28.719 8.62599 28.841 8.75099 28.992 8.85499C29.159 8.94299 29.402 9.04699 29.718 9.16499C30.052 9.28299 30.499 9.41599 31.058 9.56399C31.786 9.75599 32.399 9.96999 32.898 10.207C33.413 10.443 33.823 10.717 34.124 11.027C34.382 11.293 34.572 11.596 34.693 11.936C34.814 12.276 34.875 12.653 34.875 13.066C34.875 13.79 34.663 14.433 34.238 14.995C33.83 15.556 33.262 16 32.535 16.325C31.808 16.65 30.99 16.812 30.082 16.812ZM38.308 16.037C39.293 16.554 40.436 16.812 41.738 16.812C42.283 16.812 42.836 16.746 43.396 16.613C43.96 16.478 44.509 16.285 45.031 16.037C45.556 15.774 46.045 15.446 46.485 15.061L44.94 12.955C44.44 13.354 43.971 13.635 43.532 13.798C43.093 13.96 42.608 14.042 42.078 14.042C41.305 14.042 40.633 13.901 40.057 13.62C39.512 13.339 39.057 12.917 38.74 12.401C38.564 12.098 38.439 11.768 38.371 11.426H46.939L46.961 10.451C46.992 9.62299 46.87 8.85499 46.597 8.14499C46.344 7.44999 45.942 6.81599 45.418 6.28299C44.917 5.75099 44.305 5.32799 43.624 5.04199C42.927 4.74599 42.17 4.59899 41.352 4.59899C40.475 4.59899 39.657 4.75399 38.9 5.06399C38.158 5.35999 37.515 5.78799 36.969 6.34999C36.415 6.90999 35.983 7.57399 35.698 8.29999C35.395 9.05399 35.243 9.88899 35.243 10.805C35.243 11.973 35.508 13.007 36.038 13.909C36.583 14.81 37.339 15.519 38.308 16.037ZM38.399 9.49699C38.458 9.23999 38.542 9.00399 38.649 8.78799C38.891 8.29999 39.24 7.93099 39.694 7.67999C40.163 7.42899 40.731 7.30299 41.397 7.30299C41.851 7.30299 42.26 7.39899 42.623 7.59099C42.987 7.76799 43.282 8.01999 43.51 8.34499C43.751 8.65499 43.888 9.00999 43.918 9.40899V9.49699H38.399ZM51.616 8.67699C51.495 8.94299 51.434 9.23099 51.434 9.54199V16.591H48.209V4.86499H51.298L51.356 6.40099C51.445 6.28999 51.539 6.18499 51.639 6.08399C52.086 5.63499 52.618 5.27299 53.205 5.01999C53.805 4.75499 54.455 4.61899 55.113 4.62099C56.021 4.62099 56.778 4.79799 57.384 5.15299C58.006 5.50699 58.468 6.04699 58.77 6.77099C59.088 7.47999 59.247 8.35999 59.247 9.40899V16.591H56.021V9.65299C56.021 9.12099 55.946 8.67699 55.795 8.32299C55.643 7.96799 55.408 7.70899 55.09 7.54699C54.788 7.38399 54.409 7.30999 53.955 7.32499C53.591 7.32499 53.251 7.38399 52.933 7.50199C52.63 7.60599 52.365 7.76099 52.138 7.96799C51.926 8.17499 51.752 8.41099 51.616 8.67699Z" fill="#1A1F2D"/>
</svg>
