<svg width="113" height="38" viewBox="0 0 113 38" fill="none" xmlns="http://www.w3.org/2000/svg">
<g clip-path="url(#clip0_1_1086)">
<g clip-path="url(#clip1_1_1086)">
<path d="M67.9469 24.0926C67.8249 24.0926 67.7249 23.9916 67.7249 23.8686V18.9176C67.7249 16.8976 66.7429 15.6926 65.0979 15.6926C63.439 15.6926 62.448 16.8976 62.448 18.9176V23.8686C62.448 23.9916 62.348 24.0926 62.226 24.0926H60.271C60.148 24.0926 60.049 23.9916 60.049 23.8686V18.7076C60.049 15.7266 62.266 13.3926 65.097 13.3926C67.916 13.3926 70.125 15.7266 70.125 18.7076V23.8686C70.125 23.9916 70.025 24.0926 69.903 24.0926H67.9469Z" fill="#5E7182"/>
<path d="M79.663 24.0926C79.54 24.0926 79.441 23.9916 79.441 23.8686V18.9176C79.441 17.9556 79.207 17.1476 78.766 16.5826C78.304 15.9916 77.648 15.6926 76.814 15.6926C75.155 15.6926 74.164 16.8976 74.164 18.9176V23.8686C74.164 23.9916 74.065 24.0926 73.942 24.0926H71.986C71.864 24.0926 71.764 23.9916 71.764 23.8686V18.7076C71.764 15.7266 73.982 13.3926 76.813 13.3926C79.632 13.3926 81.84 15.7266 81.84 18.7076V23.8686C81.84 23.9916 81.741 24.0926 81.618 24.0926H79.663Z" fill="#5E7182"/>
<path d="M88.3799 24.2656C85.3759 24.2656 83.0229 21.8776 83.0229 18.8286C83.0229 15.7806 85.3759 13.3926 88.3799 13.3926C90.9849 13.3926 93.1989 15.2536 93.6449 17.8186C93.7059 18.1726 93.7359 18.5026 93.7359 18.8286C93.7359 19.0216 93.7269 19.2176 93.7079 19.4116C93.6959 19.5276 93.6009 19.6146 93.4869 19.6146H85.5779C85.5439 19.6146 85.5119 19.6296 85.4909 19.6576C85.4689 19.6846 85.4619 19.7196 85.4699 19.7526C85.8099 21.1786 86.9249 22.0656 88.3799 22.0656C89.5869 22.0656 90.5959 21.4236 91.0789 20.3476C91.1149 20.2676 91.1949 20.2156 91.2819 20.2156C91.3069 20.2156 91.3329 20.2196 91.3579 20.2286L93.1059 20.8726C93.1639 20.8936 93.2109 20.9396 93.2339 20.9976C93.2589 21.0556 93.2569 21.1216 93.2309 21.1786C92.3719 23.0536 90.4679 24.2656 88.3799 24.2656ZM88.3799 15.5926C87.0899 15.5926 86.0519 16.2976 85.6019 17.4796C85.5889 17.5146 85.5939 17.5526 85.6149 17.5836C85.6359 17.6136 85.6699 17.6326 85.7059 17.6326H91.0499C91.0869 17.6326 91.1209 17.6136 91.1419 17.5836C91.1619 17.5526 91.1669 17.5146 91.1539 17.4796C90.7029 16.2976 89.6659 15.5926 88.3799 15.5926Z" fill="#5E7182"/>
<path d="M53.44 24.2676C50.474 24.2676 48.062 21.8286 48.062 18.8296C48.062 15.8316 50.474 13.3926 53.44 13.3926C56.405 13.3926 58.818 15.8316 58.818 18.8296C58.818 21.8286 56.405 24.2676 53.44 24.2676ZM53.44 15.6796C51.722 15.6796 50.324 17.0926 50.324 18.8296C50.324 20.5676 51.722 21.9806 53.44 21.9806C55.157 21.9806 56.555 20.5676 56.555 18.8296C56.555 17.0926 55.157 15.6796 53.44 15.6796Z" fill="#5E7182"/>
<path d="M43.526 24.2656C42.089 24.2656 40.738 23.6996 39.723 22.6716C37.627 20.5526 37.627 17.1026 39.723 14.9826C40.738 13.9576 42.088 13.3926 43.526 13.3926C44.964 13.3926 46.314 13.9576 47.329 14.9826C47.37 15.0246 47.394 15.0826 47.394 15.1416C47.394 15.2006 47.371 15.2576 47.329 15.3006L46.043 16.5996C46.001 16.6426 45.945 16.6656 45.886 16.6656C45.826 16.6656 45.771 16.6426 45.729 16.5996C45.141 16.0066 44.359 15.6796 43.526 15.6796C42.693 15.6796 41.911 16.0066 41.323 16.5996C40.109 17.8286 40.109 19.8266 41.323 21.0546C41.911 21.6496 42.693 21.9776 43.526 21.9776C44.358 21.9776 45.141 21.6496 45.729 21.0546C45.771 21.0126 45.826 20.9896 45.886 20.9896C45.945 20.9896 46.001 21.0126 46.043 21.0546L47.329 22.3546C47.415 22.4426 47.415 22.5846 47.329 22.6716C46.313 23.6996 44.962 24.2656 43.526 24.2656Z" fill="#5E7182"/>
<path d="M100.053 24.2626C98.615 24.2626 97.265 23.6986 96.25 22.6716C95.236 21.6466 94.677 20.2816 94.678 18.8276C94.678 17.3736 95.236 16.0076 96.25 14.9826C97.265 13.9566 98.615 13.3926 100.053 13.3926C101.491 13.3926 102.842 13.9566 103.856 14.9826C103.898 15.0246 103.921 15.0816 103.921 15.1416C103.921 15.2016 103.898 15.2576 103.856 15.3006L102.57 16.5996C102.528 16.6426 102.473 16.6656 102.413 16.6656C102.354 16.6656 102.298 16.6426 102.256 16.5996C101.668 16.0066 100.886 15.6796 100.053 15.6796C99.22 15.6796 98.438 16.0066 97.851 16.5996C97.263 17.1946 96.939 17.9856 96.939 18.8276C96.939 19.6706 97.263 20.4616 97.85 21.0546C98.439 21.6496 99.221 21.9776 100.053 21.9776C100.886 21.9776 101.668 21.6496 102.256 21.0546C102.298 21.0126 102.354 20.9896 102.413 20.9896C102.473 20.9896 102.528 21.0126 102.57 21.0546L103.856 22.3546C103.897 22.3966 103.921 22.4546 103.921 22.5136C103.921 22.5736 103.898 22.6296 103.856 22.6726C102.841 23.6986 101.491 24.2626 100.053 24.2626Z" fill="#5E7182"/>
<path d="M111.008 24.0919C108.03 24.0919 106.253 22.1519 106.253 18.9029V15.9389C106.253 15.8769 106.203 15.8259 106.141 15.8259H104.788C104.698 15.8259 104.617 15.7719 104.583 15.6879C104.548 15.6029 104.567 15.5069 104.631 15.4429L106.442 13.6109C106.485 13.5689 106.54 13.5449 106.6 13.5449H112.65C112.773 13.5449 112.873 13.6459 112.873 13.7699V15.6289C112.873 15.7519 112.773 15.8529 112.65 15.8529H108.772C108.71 15.8529 108.661 15.9029 108.661 15.9649V19.1149C108.661 20.9359 109.499 21.7839 111.301 21.7839H112.65C112.773 21.7839 112.873 21.8849 112.873 22.0089V23.8679C112.873 23.9909 112.773 24.0919 112.65 24.0919H111.008Z" fill="#5E7182"/>
<path d="M21.922 12.2116L23.472 10.6446C19.745 8.25958 14.742 8.70458 11.495 11.9876C9.61499 13.8896 8.67399 16.3866 8.67499 18.8846C8.67399 21.3826 9.61499 23.8806 11.495 25.7826C14.742 29.0646 19.745 29.5106 23.472 27.1256L21.922 25.5586C19.065 27.1346 15.408 26.7096 12.992 24.2686C11.525 22.7846 10.791 20.8346 10.791 18.8846C10.791 16.9356 11.525 14.9856 12.992 13.5016C15.408 11.0606 19.065 10.6356 21.922 12.2116Z" fill="#5E7182"/>
<path d="M18.316 15.6131C19.18 15.6131 19.993 15.9541 20.604 16.5711C21.017 16.9891 21.688 16.9891 22.101 16.5711L28.174 10.4321C28.373 10.2311 28.484 9.95806 28.484 9.67506C28.484 9.39106 28.373 9.11806 28.174 8.91806C25.541 6.25506 22.041 4.78906 18.317 4.78906C14.594 4.78906 11.092 6.25506 8.459 8.91806C5.742 11.6661 4.383 15.2751 4.383 18.8841C4.383 22.4941 5.742 26.1031 8.459 28.8511C11.092 31.5131 14.594 32.9801 18.317 32.9801C22.041 32.9801 25.541 31.5131 28.174 28.8511C28.373 28.6501 28.484 28.3781 28.484 28.0941C28.484 27.8101 28.373 27.5381 28.174 27.3371L22.101 21.1971C21.688 20.7801 21.017 20.7801 20.604 21.1971C19.993 21.8151 19.18 22.1561 18.316 22.1561C17.452 22.1561 16.64 21.8151 16.029 21.1971C15.418 20.5801 15.082 19.7581 15.082 18.8841C15.082 18.0111 15.418 17.1891 16.029 16.5711C16.64 15.9541 17.452 15.6131 18.316 15.6131ZM14.532 15.0571C13.521 16.0791 12.964 17.4391 12.964 18.8841C12.964 20.3301 13.521 21.6891 14.532 22.7121C15.543 23.7341 16.887 24.2971 18.316 24.2971C19.387 24.2971 20.408 23.9811 21.279 23.3941L25.895 28.0611C23.773 29.8591 21.119 30.8381 18.317 30.8381C15.159 30.8381 12.19 29.5951 9.956 27.3371C7.652 25.0061 6.499 21.9451 6.499 18.8841C6.499 15.8231 7.652 12.7621 9.956 10.4321C12.19 8.17406 15.159 6.93006 18.317 6.93006C21.119 6.93006 23.773 7.90906 25.895 9.70806L21.279 14.3751C20.408 13.7871 19.387 13.4721 18.316 13.4721C16.887 13.4721 15.543 14.0351 14.532 15.0571Z" fill="#5E7182"/>
<path d="M25.451 23.0702L27.198 24.8362C28.1 24.7712 29.024 25.0862 29.712 25.7822C30.974 27.0572 30.974 29.1322 29.712 30.4072C26.669 33.4852 22.622 35.1802 18.317 35.1802C14.012 35.1802 9.96501 33.4852 6.92101 30.4072C3.87701 27.3292 2.20001 23.2372 2.20101 18.8842C2.20001 14.5322 3.87701 10.4402 6.92101 7.36224C9.96501 4.28424 14.012 2.58924 18.317 2.58924C22.622 2.58924 26.669 4.28424 29.712 7.36224C30.974 8.63724 30.974 10.7122 29.712 11.9872C29.024 12.6832 28.1 12.9972 27.198 12.9332L25.451 14.6992C27.376 15.4682 29.655 15.0732 31.21 13.5012C33.297 11.3912 33.297 7.95824 31.21 5.84824L31.207 5.84524C27.764 2.36524 23.186 0.448242 18.317 0.448242C13.447 0.448242 8.86801 2.36624 5.42401 5.84824C1.97901 9.33024 0.0830078 13.9602 0.0830078 18.8842C0.0830078 23.8092 1.97901 28.4392 5.42401 31.9212C8.86801 35.4032 13.447 37.3212 18.317 37.3212C23.186 37.3212 27.764 35.4042 31.207 31.9242L31.21 31.9212C33.297 29.8112 33.297 26.3772 31.21 24.2682C29.655 22.6962 27.376 22.3002 25.451 23.0702Z" fill="#5E7182"/>
</g>
</g>
<defs>
<clipPath id="clip0_1_1086">
<rect width="113" height="37" fill="white" transform="translate(0 0.410156)"/>
</clipPath>
<clipPath id="clip1_1_1086">
<rect width="113" height="37" fill="white" transform="translate(0 0.410156)"/>
</clipPath>
</defs>
</svg>
