<svg width="9" height="7" viewBox="0 0 9 7" fill="none" xmlns="http://www.w3.org/2000/svg">
<path d="M7.71645 0.538029C7.19095 0.297529 6.63645 0.126529 6.06645 0.0300293C5.98845 0.169529 5.91795 0.313029 5.85495 0.460029C5.24795 0.368529 4.62995 0.368529 4.02295 0.460029C3.96045 0.313029 3.88995 0.169529 3.81195 0.0300293C3.24145 0.127029 2.68595 0.298529 2.15995 0.539029C1.11545 2.08403 0.832454 3.59153 0.973954 5.07703C1.58545 5.52903 2.26995 5.87303 2.99795 6.09353C3.16195 5.87303 3.30695 5.63903 3.43145 5.39403C3.19495 5.30553 2.96645 5.19653 2.74895 5.06803C2.80645 5.02653 2.86245 4.98403 2.91645 4.94253C4.19795 5.54503 5.68195 5.54503 6.96345 4.94253C7.01845 4.98753 7.07445 5.03003 7.13095 5.06803C6.91295 5.19703 6.68395 5.30603 6.44695 5.39503C6.57145 5.63953 6.71645 5.87303 6.88045 6.09303C7.60895 5.87353 8.29395 5.53003 8.90595 5.07803C9.07195 3.35503 8.62195 1.86153 7.71645 0.538029ZM3.61145 4.16303C3.21645 4.16303 2.89045 3.80553 2.89045 3.36503C2.89045 2.92453 3.20545 2.56353 3.60995 2.56353C4.01445 2.56353 4.33795 2.92453 4.33095 3.36503C4.32395 3.80503 4.01295 4.16353 3.61095 4.16353L3.61145 4.16303ZM6.26895 4.16303C5.87395 4.16303 5.54895 3.80553 5.54895 3.36503C5.54895 2.92453 5.86395 2.56353 6.26895 2.56353C6.67395 2.56353 6.99495 2.92453 6.98795 3.36503C6.98095 3.80503 6.67095 4.16353 6.26895 4.16353V4.16303Z" fill="#888EA5"/>
</svg>
