<svg width="8" height="8" viewBox="0 0 8 8" fill="none" xmlns="http://www.w3.org/2000/svg">
<path d="M5.18069 7.58576C5.02125 7.58576 4.88514 7.5284 4.76993 7.41368C4.65812 7.30625 4.5959 7.1575 4.59736 7.00243V5.37201C4.59736 5.21257 4.65521 5.07646 4.76993 4.96125C4.87736 4.84944 5.02611 4.78722 5.18069 4.78868H6.81111C6.97007 4.78868 7.10715 4.84653 7.22236 4.96125C7.33708 5.07646 7.39444 5.21306 7.39444 5.37201V7.00243C7.39444 7.16139 7.33708 7.29847 7.22236 7.41368C7.11493 7.525 6.96618 7.58771 6.81111 7.58576H5.18069ZM5.18069 7.00243H6.81111V5.37201H5.18069V7.00243ZM0.0055542 6.47889V5.89556H3.35583V6.47889H0.0055542ZM5.18069 3.77174C5.02611 3.77368 4.87687 3.71097 4.76993 3.59917C4.65812 3.49174 4.5959 3.34299 4.59736 3.1884V1.55799C4.59736 1.39903 4.65521 1.26194 4.76993 1.14674C4.87736 1.03542 5.02611 0.972709 5.18069 0.974653H6.81111C6.97007 0.974653 7.10715 1.03201 7.22236 1.14674C7.33708 1.26194 7.39444 1.39903 7.39444 1.55799V3.1884C7.39444 3.34785 7.33708 3.48396 7.22236 3.59917C7.11493 3.71097 6.96618 3.77319 6.81111 3.77174H5.18069ZM5.18069 3.1884H6.81111V1.55799H5.18069V3.1884ZM0.0055542 2.66486V2.08153H3.35583V2.66486H0.0055542Z" fill="#888EA5"/>
</svg>
