<svg width="17" height="17" viewBox="0 0 17 17" fill="none" xmlns="http://www.w3.org/2000/svg">
<g clip-path="url(#clip0_1_982)">
<g clip-path="url(#clip1_1_982)">
<path d="M8.38597 0.413086C3.97597 0.413086 0.409973 4.00509 0.409973 8.44809C0.409973 12.0001 2.69497 15.0071 5.86397 16.0711C6.25997 16.1511 6.40497 15.8981 6.40497 15.6861C6.40497 15.4991 6.39197 14.8611 6.39197 14.1961C4.17297 14.6751 3.71097 13.2381 3.71097 13.2381C3.35497 12.3061 2.82597 12.0671 2.82597 12.0671C2.09997 11.5751 2.87897 11.5751 2.87897 11.5751C3.68497 11.6281 4.10797 12.4001 4.10797 12.4001C4.82097 13.6231 5.96997 13.2781 6.43197 13.0651C6.49797 12.5461 6.70897 12.1871 6.93397 11.9871C5.16397 11.8011 3.30197 11.1091 3.30197 8.02309C3.30197 7.14509 3.61897 6.42609 4.12097 5.86809C4.04197 5.66809 3.76397 4.84309 4.19997 3.73909C4.19997 3.73909 4.87397 3.52609 6.39197 4.56409C7.04197 4.38809 7.71297 4.29809 8.38597 4.29809C9.05997 4.29809 9.74597 4.39109 10.38 4.56409C11.899 3.52609 12.572 3.73909 12.572 3.73909C13.008 4.84309 12.731 5.66809 12.651 5.86809C13.167 6.42609 13.47 7.14509 13.47 8.02309C13.47 11.1091 11.608 11.7881 9.82597 11.9871C10.116 12.2401 10.367 12.7191 10.367 13.4771C10.367 14.5551 10.354 15.4201 10.354 15.6851C10.354 15.8981 10.499 16.1511 10.895 16.0711C14.065 15.0071 16.349 12.0001 16.349 8.44809C16.362 4.00509 12.784 0.413086 8.38597 0.413086Z" fill="#161A26"/>
</g>
</g>
<defs>
<clipPath id="clip0_1_982">
<rect width="16" height="16" fill="white" transform="translate(0.409973 0.25)"/>
</clipPath>
<clipPath id="clip1_1_982">
<rect width="16" height="16" fill="white" transform="translate(0.409973 0.25)"/>
</clipPath>
</defs>
</svg>
