<svg width="9" height="8" viewBox="0 0 9 8" fill="none" xmlns="http://www.w3.org/2000/svg">
<path d="M6.31 4.78027C7.0005 4.78027 7.56 5.33977 7.56 6.03027C7.56 6.72077 7.0005 7.28027 6.31 7.28027C5.6195 7.28027 5.06 6.72077 5.06 6.03027C5.06 5.33977 5.6195 4.78027 6.31 4.78027ZM2.31 4.78027C3.0005 4.78027 3.56 5.33977 3.56 6.03027C3.56 6.72077 3.0005 7.28027 2.31 7.28027C1.6195 7.28027 1.06 6.72077 1.06 6.03027C1.06 5.33977 1.6195 4.78027 2.31 4.78027ZM4.31 1.28027C5.0005 1.28027 5.56 1.83977 5.56 2.53027C5.56 3.22077 5.0005 3.78027 4.31 3.78027C3.6195 3.78027 3.06 3.22077 3.06 2.53027C3.06 1.83977 3.6195 1.28027 4.31 1.28027Z" stroke="#888EA5" stroke-width="1.25"/>
</svg>
