<svg width="8" height="8" viewBox="0 0 8 8" fill="none" xmlns="http://www.w3.org/2000/svg">
<path d="M1.168 7.57177C0.985505 7.57177 0.828005 7.50577 0.696505 7.37377C0.564505 7.24227 0.498505 7.08477 0.498505 6.90227V1.65827C0.498505 1.47077 0.564505 1.31227 0.696505 1.18277C0.828005 1.05327 0.985505 0.98877 1.168 0.98877H6.412C6.5995 0.98877 6.758 1.05327 6.8875 1.18277C7.017 1.31227 7.0815 1.47077 7.0815 1.65827V6.90227C7.0815 7.08477 7.017 7.24227 6.8875 7.37377C6.758 7.50577 6.5995 7.57177 6.412 7.57177H1.168ZM1.168 7.03027H6.412C6.449 7.03027 6.48 7.01827 6.504 6.99427C6.528 6.97027 6.54 6.93927 6.54 6.90227V5.45027H5.253C5.12 5.74877 4.9225 5.99027 4.66 6.17427C4.397 6.35827 4.1075 6.45027 3.79 6.45027C3.466 6.45027 3.1725 6.35977 2.91 6.17927C2.647 5.99877 2.453 5.75577 2.327 5.45027H1.04V6.90227C1.04 6.93927 1.052 6.97027 1.076 6.99427C1.1 7.01827 1.131 7.03027 1.168 7.03027ZM3.79 5.90827C4.068 5.90827 4.304 5.81127 4.4985 5.61677C4.693 5.42227 4.79 5.18627 4.79 4.90827H6.54V1.65827C6.54 1.62127 6.528 1.59027 6.504 1.56627C6.48 1.54227 6.449 1.53027 6.412 1.53027H1.168C1.131 1.53027 1.1 1.54227 1.076 1.56627C1.052 1.59027 1.04 1.62127 1.04 1.65827V4.90827H2.79C2.79 5.18627 2.887 5.42227 3.0815 5.61677C3.276 5.81127 3.512 5.90827 3.79 5.90827ZM1.168 7.03027H1.04H6.54H1.168Z" fill="#888EA5"/>
</svg>
