<svg width="7" height="7" viewBox="0 0 7 7" fill="none" xmlns="http://www.w3.org/2000/svg">
<path d="M0.42401 3.97153C0.41051 3.91453 0.47851 3.87903 0.52001 3.92003L2.71051 6.11053C2.75151 6.15203 2.71601 6.22003 2.65901 6.20653C1.55351 5.94703 0.68351 5.07703 0.42401 3.97153ZM0.35051 3.09353C0.34951 3.11053 0.35551 3.12703 0.36751 3.13903L3.49101 6.26253C3.50301 6.27453 3.51951 6.28103 3.53651 6.27953C3.67901 6.27103 3.81851 6.25203 3.95451 6.22403C4.00051 6.21453 4.01601 6.15853 3.98301 6.12553L0.50501 2.64703C0.47151 2.61403 0.41551 2.63003 0.40601 2.67553C0.37801 2.81153 0.35901 2.95103 0.35051 3.09353ZM0.60301 2.06253C0.59301 2.08453 0.59801 2.11103 0.61551 2.12803L4.50201 6.01453C4.51901 6.03203 4.54551 6.03703 4.56801 6.02703C4.67501 5.97953 4.77901 5.92553 4.87901 5.86603C4.91201 5.84653 4.91701 5.80103 4.89001 5.77353L0.85651 1.74003C0.82951 1.71303 0.78401 1.71803 0.76401 1.75103C0.70451 1.85103 0.65101 1.95503 0.60301 2.06253ZM1.10951 1.36453C1.08751 1.34253 1.08601 1.30703 1.10701 1.28353C1.65701 0.668029 2.45701 0.280029 3.34701 0.280029C5.00551 0.280029 6.35001 1.62453 6.35001 3.28303C6.35001 4.17353 5.96251 4.97303 5.34651 5.52303C5.32351 5.54403 5.28751 5.54253 5.26551 5.52053L1.10951 1.36453Z" fill="#888EA5"/>
</svg>
