<svg width="8" height="7" viewBox="0 0 8 7" fill="none" xmlns="http://www.w3.org/2000/svg">
<path d="M7.9232 3.28006L6.22358 5.68508C6.05386 5.92519 5.77758 6.06695 5.48347 6.06598H1.41211C1.19803 6.06598 1.01529 5.99028 0.864372 5.83889C0.715867 5.69568 0.6339 5.49703 0.636793 5.29115V1.26945C0.636793 1.05537 0.712974 0.872636 0.864372 0.72172C1.01529 0.570322 1.19803 0.494141 1.41211 0.494141H5.48347C5.63438 0.494141 5.77469 0.528856 5.90343 0.598769C6.03313 0.668683 6.1392 0.763668 6.22358 0.883726L7.9232 3.28006ZM7.13631 3.28006L5.68983 1.24438C5.64113 1.17929 5.56543 1.13975 5.48395 1.13734H1.41211C1.37787 1.13782 1.3446 1.15277 1.32146 1.17833C1.29591 1.20195 1.28096 1.23474 1.28048 1.26945V5.29115C1.28048 5.32394 1.29398 5.35431 1.32146 5.3818C1.3446 5.40735 1.37787 5.4223 1.41211 5.42326H5.48395C5.56495 5.42037 5.64065 5.38083 5.68983 5.31574L7.13679 3.28006H7.13631ZM1.27999 3.28006V5.42326V1.13734V3.28006Z" fill="#888EA5"/>
</svg>
