<svg width="32" height="33" viewBox="0 0 32 33" fill="none" xmlns="http://www.w3.org/2000/svg">
<rect y="0.25" width="32" height="32" rx="4" fill="#888EA5"/>
<g clip-path="url(#clip0_1_925)">
<g clip-path="url(#clip1_1_925)">
<g clip-path="url(#clip2_1_925)">
<path d="M20.6 15.3505L17.396 12.1465L8.94 20.6065C8.65922 20.8882 8.50156 21.2697 8.50156 21.6675C8.50156 22.0652 8.65922 22.4468 8.94 22.7285L10.021 23.8095C10.3027 24.0903 10.6842 24.2479 11.082 24.2479C11.4797 24.2479 11.8613 24.0903 12.143 23.8095L20.6 15.3505Z" fill="black"/>
<path opacity="0.4" d="M14.834 9.58448L15.275 8.40648C15.292 8.36055 15.3227 8.32094 15.363 8.29297C15.4032 8.26499 15.451 8.25 15.5 8.25C15.549 8.25 15.5968 8.26499 15.637 8.29297C15.6773 8.32094 15.708 8.36055 15.725 8.40648L16.165 9.58448L17.344 10.0255C17.3899 10.0425 17.4295 10.0732 17.4575 10.1135C17.4855 10.1537 17.5005 10.2015 17.5005 10.2505C17.5005 10.2995 17.4855 10.3473 17.4575 10.3875C17.4295 10.4277 17.3899 10.4584 17.344 10.4755L16.166 10.9155L15.725 12.0945C15.708 12.1404 15.6773 12.18 15.637 12.208C15.5968 12.236 15.549 12.251 15.5 12.251C15.451 12.251 15.4032 12.236 15.363 12.208C15.3227 12.18 15.292 12.1404 15.275 12.0945L14.835 10.9165L13.656 10.4755C13.6101 10.4584 13.5705 10.4277 13.5425 10.3875C13.5145 10.3473 13.4995 10.2995 13.4995 10.2505C13.4995 10.2015 13.5145 10.1537 13.5425 10.1135C13.5705 10.0732 13.6101 10.0425 13.656 10.0255L14.834 9.58548V9.58448ZM24.059 11.8945L20.6 15.3505L19.363 14.1135L22.643 10.8315L21.919 10.1035L18.637 13.3845L17.4 12.1475L20.856 8.69048C21.1377 8.4097 21.5193 8.25204 21.917 8.25204C22.3147 8.25204 22.6963 8.4097 22.978 8.69048L24.059 9.77048C24.3401 10.0522 24.4979 10.434 24.4979 10.832C24.4979 11.23 24.3401 11.6117 24.059 11.8935V11.8945ZM7.734 11.9125L9.5 11.2505L10.163 9.48448C10.1889 9.41596 10.235 9.35691 10.2951 9.31513C10.3553 9.27335 10.4267 9.25081 10.5 9.25048C10.65 9.25048 10.784 9.34448 10.837 9.48448L11.5 11.2505L13.266 11.9135C13.3345 11.9395 13.3934 11.9857 13.435 12.046C13.4766 12.1062 13.4989 12.1777 13.4989 12.251C13.4989 12.3242 13.4766 12.3957 13.435 12.456C13.3934 12.5163 13.3345 12.5625 13.266 12.5885L11.5 13.2505L10.837 15.0165C10.8111 15.085 10.765 15.1441 10.7049 15.1858C10.6447 15.2276 10.5733 15.2502 10.5 15.2505C10.4267 15.2502 10.3553 15.2276 10.2951 15.1858C10.235 15.1441 10.1889 15.085 10.163 15.0165L9.5 13.2505L7.734 12.5885C7.66532 12.5625 7.60616 12.5163 7.56437 12.4559C7.52257 12.3956 7.50012 12.3239 7.5 12.2505C7.5 12.1005 7.594 11.9665 7.734 11.9135V11.9125ZM18.734 19.9125L20.5 19.2505L21.162 17.4845C21.1884 17.4164 21.2348 17.3579 21.295 17.3167C21.3552 17.2755 21.4265 17.2534 21.4995 17.2534C21.5725 17.2534 21.6438 17.2755 21.704 17.3167C21.7642 17.3579 21.8106 17.4164 21.837 17.4845L22.5 19.2505L24.266 19.9125C24.3341 19.9389 24.3925 19.9852 24.4338 20.0455C24.475 20.1057 24.4971 20.177 24.4971 20.25C24.4971 20.323 24.475 20.3943 24.4338 20.4545C24.3925 20.5147 24.3341 20.5611 24.266 20.5875L22.5 21.2505L21.838 23.0165C21.812 23.0852 21.7658 23.1443 21.7054 23.1861C21.6451 23.2279 21.5734 23.2504 21.5 23.2505C21.4266 23.2504 21.3549 23.2279 21.2946 23.1861C21.2342 23.1443 21.188 23.0852 21.162 23.0165L20.5 21.2505L18.734 20.5885C18.6653 20.5625 18.6062 20.5163 18.5644 20.4559C18.5226 20.3956 18.5001 20.3239 18.5 20.2505C18.5 20.1005 18.594 19.9665 18.734 19.9125Z" fill="black"/>
</g>
</g>
</g>
<defs>
<clipPath id="clip0_1_925">
<rect width="16" height="16" fill="white" transform="translate(8 8.25)"/>
</clipPath>
<clipPath id="clip1_1_925">
<rect width="16" height="16" fill="white" transform="translate(8 8.25)"/>
</clipPath>
<clipPath id="clip2_1_925">
<rect width="17" height="16" fill="white" transform="translate(7.5 8.25)"/>
</clipPath>
</defs>
</svg>
