<svg width="15" height="7" viewBox="0 0 15 7" fill="none" xmlns="http://www.w3.org/2000/svg">
<path d="M0.651489 6.40567V5.68467C0.651489 5.29167 0.853989 4.96817 1.25949 4.71567C1.66499 4.46317 2.19299 4.33717 2.84499 4.33717C2.95249 4.33717 3.06099 4.34017 3.16999 4.34717C3.27899 4.35367 3.38899 4.36767 3.49999 4.38717C3.27949 4.74117 3.16299 5.15117 3.16449 5.57017V6.40567H0.651489ZM4.15149 6.40567V5.59317C4.15149 5.31567 4.22799 5.06317 4.38149 4.83417C4.53499 4.60517 4.75599 4.40517 5.04449 4.23467C5.33349 4.06417 5.67449 3.93667 6.06799 3.85117C6.49199 3.76267 6.92449 3.72017 7.35749 3.72317C7.83349 3.72317 8.26749 3.76567 8.66149 3.85117C9.05449 3.93667 9.39599 4.06417 9.68449 4.23517C9.97249 4.40517 10.192 4.60517 10.3425 4.83417C10.493 5.06317 10.5685 5.31567 10.5685 5.59317V6.40567H4.15149ZM11.5555 6.40567V5.57167C11.5565 5.35967 11.5305 5.14867 11.478 4.94367C11.426 4.74767 11.3475 4.56017 11.244 4.38717C11.358 4.36767 11.4675 4.35367 11.5715 4.34717C11.676 4.34017 11.7795 4.33717 11.881 4.33717C12.5325 4.33717 13.059 4.46117 13.463 4.71117C13.8665 4.96117 14.0685 5.28567 14.0685 5.68467V6.40567H11.5555ZM5.07149 5.51917H9.65699V5.45667C9.59749 5.21767 9.34899 5.01667 8.91249 4.85367C8.47599 4.69117 7.95849 4.60967 7.35999 4.60967C6.76149 4.60967 6.24399 4.69117 5.80699 4.85417C5.37099 5.01667 5.12549 5.21767 5.07149 5.45667V5.51917ZM2.84299 3.76317C2.56849 3.76317 2.33349 3.66417 2.13849 3.46617C1.94799 3.27867 1.84249 3.02017 1.84699 2.75117C1.84699 2.47017 1.94449 2.23167 2.13949 2.03767C2.32599 1.84717 2.58049 1.74167 2.84499 1.74617C3.12299 1.74617 3.35899 1.84317 3.55249 2.03767C3.74599 2.23267 3.84299 2.47067 3.84299 2.75367C3.84299 3.02767 3.74749 3.26467 3.55549 3.46467C3.36999 3.66117 3.11149 3.76917 2.84299 3.76317ZM11.881 3.76317C11.6085 3.76317 11.374 3.66367 11.1775 3.46467C10.9865 3.27917 10.8795 3.02167 10.882 2.75367C10.882 2.47017 10.9805 2.23167 11.1775 2.03767C11.3635 1.84767 11.618 1.74267 11.882 1.74617C12.163 1.74617 12.3995 1.84317 12.5915 2.03767C12.784 2.23267 12.8795 2.47017 12.8795 2.75167C12.8795 3.02967 12.783 3.26767 12.592 3.46617C12.4065 3.66167 12.1485 3.76917 11.881 3.76317ZM7.36199 3.28017C6.95849 3.28717 6.56999 3.12517 6.28849 2.83267C5.99849 2.54817 5.83799 2.15517 5.84499 1.74617C5.84499 1.31117 5.99249 0.947168 6.28749 0.653168C6.57049 0.363668 6.95799 0.204668 7.35999 0.212168C7.78949 0.212168 8.14849 0.358668 8.43899 0.652168C8.72899 0.946168 8.87449 1.31017 8.87449 1.74417C8.88149 2.15167 8.72499 2.54417 8.43999 2.83167C8.14999 3.13067 7.79049 3.28017 7.36199 3.28017ZM7.36299 2.39367C7.54149 2.39367 7.69199 2.33067 7.81499 2.20417C7.93599 2.08267 8.00249 1.91567 7.99949 1.74317C7.99949 1.56217 7.93799 1.41017 7.81549 1.28517C7.69549 1.16217 7.53099 1.09417 7.35999 1.09867C7.18299 1.09867 7.03349 1.16067 6.90799 1.28467C6.78449 1.40517 6.71649 1.57267 6.72049 1.74617C6.72049 1.92517 6.78299 2.07717 6.90799 2.20417C7.03249 2.33067 7.18449 2.39367 7.36299 2.39367Z" fill="#888EA5"/>
</svg>
