<svg width="18" height="18" viewBox="0 0 18 18" fill="none" xmlns="http://www.w3.org/2000/svg">
<path fill-rule="evenodd" clip-rule="evenodd" d="M4.41003 0.590088C2.20089 0.590088 0.410034 2.38095 0.410034 4.59009V13.5901C0.410034 15.7992 2.20089 17.5901 4.41003 17.5901H13.41C15.6191 17.5901 17.41 15.7992 17.41 13.5901V4.59009C17.41 2.38095 15.6191 0.590088 13.41 0.590088H4.41003ZM8.67192 5.10881C8.69319 5.11155 8.71455 5.11445 8.73185 5.11805C9.97042 5.28244 10.91 6.45739 10.91 7.75676C10.91 9.16982 9.7657 10.4285 8.37055 10.4285C8.34677 10.4285 8.32341 10.4268 8.30004 10.4252C8.28683 10.4243 8.27361 10.4234 8.26032 10.4228L6.24336 10.4234V13.0901H4.91003V5.09009L8.37861 5.09368L8.39532 5.09394L8.40115 5.09368L8.40717 5.09398C8.40917 5.09413 8.41119 5.09428 8.41322 5.09428C8.51307 5.09522 8.5941 5.09932 8.65783 5.10685C8.66033 5.10707 8.66279 5.10747 8.66525 5.10786L8.67192 5.10881ZM8.91068 6.42334H6.24401V9.09001H8.91068V6.42334ZM10.91 13.0901H12.91V11.0901H10.91V13.0901Z" fill="black"/>
</svg>
