<svg width="8" height="8" viewBox="0 0 8 8" fill="none" xmlns="http://www.w3.org/2000/svg">
<path d="M0.283012 7.63734V6.98084H1.56201L1.24401 6.67634C0.884012 6.34384 0.628512 5.97184 0.477012 5.55984C0.327512 5.15984 0.250512 4.73734 0.249512 4.31034C0.249512 3.55434 0.470512 2.87634 0.913512 2.27684C1.35651 1.67684 1.93701 1.26534 2.65551 1.04134V1.73234C2.13751 1.93134 1.69351 2.28584 1.38451 2.74734C1.06851 3.20684 0.901512 3.75234 0.905512 4.31034C0.905512 4.65234 0.970512 4.98484 1.10001 5.30734C1.22951 5.62984 1.43101 5.92784 1.70501 6.20134L1.98251 6.47934V5.28084H2.63901V7.63684L0.283012 7.63734ZM4.62451 7.51934V6.82784C5.14251 6.62934 5.58651 6.27484 5.89551 5.81384C6.21151 5.35384 6.37901 4.80784 6.37451 4.24984C6.37451 3.90784 6.30851 3.56884 6.18001 3.25234C6.05051 2.93034 5.84901 2.63184 5.57501 2.35834L5.29701 2.08084V3.27834H4.64101V0.92334H6.99701V1.57984H5.71801L6.03601 1.88434C6.38201 2.23034 6.63451 2.60584 6.79301 3.01134C6.95151 3.41634 7.03051 3.82934 7.03051 4.25034C7.03051 5.00634 6.80901 5.68434 6.36651 6.28434C5.92351 6.88334 5.34251 7.29534 4.62451 7.51984V7.51934Z" fill="#888EA5"/>
</svg>
