<svg width="8" height="8" viewBox="0 0 8 8" fill="none" xmlns="http://www.w3.org/2000/svg">
<path d="M2.201 5.20402C2.201 5.60902 1.87 5.93952 1.4655 5.93952C1.061 5.93952 0.729996 5.60902 0.729996 5.20452C0.729996 4.79952 1.0605 4.46902 1.465 4.46902H2.201V5.20402ZM2.571 5.20402C2.571 4.79952 2.9015 4.46902 3.3065 4.46902C3.711 4.46902 4.042 4.79952 4.042 5.20402V7.04552C4.042 7.45002 3.711 7.78052 3.307 7.78052C2.901 7.77952 2.5725 7.45102 2.571 7.04552V5.20402ZM3.3065 2.25152C2.902 2.25152 2.5715 1.92102 2.5715 1.51602C2.572 1.11052 2.9005 0.782018 3.306 0.781018C3.711 0.781018 4.0415 1.11152 4.0415 1.51602V2.25152H3.3065ZM3.3065 2.62202C3.711 2.62202 4.042 2.95252 4.042 3.35702C4.042 3.76202 3.711 4.09252 3.307 4.09252H1.465C1.0605 4.09252 0.729996 3.76202 0.729996 3.35752C0.729996 2.95302 1.0605 2.62202 1.465 2.62202H3.3065ZM6.259 3.35702C6.259 2.95302 6.59 2.62202 6.9945 2.62202C7.399 2.62202 7.73 2.95302 7.73 3.35702C7.73 3.76202 7.3995 4.09252 6.995 4.09252H6.259V3.35752V3.35702ZM5.889 3.35702C5.889 3.76202 5.5585 4.09252 5.1535 4.09252C4.749 4.09252 4.418 3.76202 4.418 3.35752V1.51602C4.418 1.11152 4.749 0.780518 5.153 0.780518C5.558 0.780518 5.889 1.11102 5.889 1.51552V3.35702ZM5.1535 6.31002C5.558 6.31002 5.8885 6.64052 5.8885 7.04552C5.8885 7.45002 5.558 7.78052 5.1535 7.78052C4.748 7.77952 4.4195 7.45102 4.418 7.04552V6.31052H5.153L5.1535 6.31002ZM5.1535 5.93952C4.748 5.93852 4.4195 5.61002 4.418 5.20452C4.418 4.79952 4.749 4.46902 5.153 4.46902H6.9945C7.3995 4.46902 7.73 4.79952 7.73 5.20402C7.73 5.60902 7.3995 5.93952 6.995 5.93952H5.1535Z" fill="#888EA5"/>
</svg>
