<svg width="26" height="25" viewBox="0 0 26 25" fill="none" xmlns="http://www.w3.org/2000/svg">
    <path
        d="M9.68199 7.744C9.61399 7.594 9.46399 7.5 9.30099 7.5C9.13899 7.5 8.98899 7.594 8.92099 7.744L7.53799 10.738L4.54399 12.118C4.39399 12.186 4.29999 12.336 4.29999 12.501C4.29999 12.667 4.39399 12.814 4.54399 12.882L7.53799 14.265L8.91799 17.256C8.98599 17.405 9.13599 17.5 9.29899 17.5C9.46099 17.5 9.61099 17.405 9.67899 17.256L11.062 14.262L14.056 12.879C14.205 12.811 14.3 12.661 14.3 12.499C14.3 12.336 14.205 12.186 14.056 12.118L11.065 10.738L9.68199 7.744Z"
        fill="#E78450" />
    <path opacity="0.4"
        d="M14.495 6.719L15.967 6.167L16.519 4.695C16.563 4.578 16.675 4.5 16.8 4.5C16.925 4.5 17.037 4.578 17.081 4.695L17.633 6.167L19.105 6.719C19.222 6.763 19.3 6.875 19.3 7C19.3 7.125 19.222 7.237 19.105 7.281L17.633 7.833L17.081 9.305C17.037 9.422 16.925 9.5 16.8 9.5C16.675 9.5 16.563 9.422 16.519 9.305L15.967 7.833L14.495 7.281C14.378 7.237 14.3 7.125 14.3 7C14.3 6.875 14.378 6.763 14.495 6.719Z"
        fill="#E78450" />
    <path opacity="0.4"
        d="M16.3 16.5L14.534 17.163C14.394 17.216 14.3 17.35 14.3 17.5C14.3 17.65 14.394 17.784 14.534 17.837L16.3 18.5L16.963 20.266C17.016 20.406 17.15 20.5 17.3 20.5C17.45 20.5 17.584 20.406 17.637 20.266L18.3 18.5L20.066 17.837C20.206 17.784 20.3 17.65 20.3 17.5C20.3 17.35 20.206 17.216 20.066 17.163L18.3 16.5L17.637 14.734C17.584 14.594 17.45 14.5 17.3 14.5C17.15 14.5 17.016 14.594 16.963 14.734L16.3 16.5Z"
        fill="#E78450" />
</svg>