<svg width="9" height="7" viewBox="0 0 9 7" fill="none" xmlns="http://www.w3.org/2000/svg">
<path d="M5.13749 6.32691V5.71741H6.12599C6.26749 5.71741 6.38699 5.66891 6.48399 5.57141C6.58149 5.47391 6.62999 5.35591 6.62999 5.21741V4.38141C6.62999 4.13991 6.70099 3.92291 6.84249 3.73141C6.98399 3.53991 7.16799 3.40641 7.39549 3.33141V3.22841C7.16799 3.15341 6.98399 3.01991 6.84249 2.82841C6.70099 2.63691 6.62999 2.41991 6.62999 2.17841V1.34241C6.62999 1.20391 6.58149 1.08591 6.48399 0.98841C6.38699 0.89091 6.26749 0.84241 6.12599 0.84241H5.13749V0.23291H6.12599C6.43399 0.23291 6.69449 0.34091 6.90899 0.55741C7.12299 0.77341 7.22999 1.03491 7.22999 1.34241V2.17841C7.22999 2.32191 7.27999 2.44291 7.37949 2.53991C7.47949 2.63741 7.60149 2.68641 7.74549 2.68641H8.02999V3.87341H7.74549C7.60149 3.87341 7.47949 3.92241 7.37949 4.01991C7.27999 4.11691 7.22999 4.23791 7.22999 4.38141V5.21741C7.22999 5.52491 7.12299 5.78641 6.90899 6.00241C6.69449 6.21891 6.43399 6.32691 6.12599 6.32691H5.13749ZM2.33399 6.32691C2.02849 6.32691 1.76849 6.21891 1.55299 6.00241C1.33749 5.78641 1.22999 5.52491 1.22999 5.21741V4.38141C1.22999 4.23791 1.17999 4.11691 1.08049 4.01991C0.980493 3.92241 0.858493 3.87341 0.714493 3.87341H0.429993V2.68641H0.714493C0.858493 2.68641 0.980493 2.63741 1.08049 2.53991C1.17999 2.44291 1.22999 2.32191 1.22999 2.17841V1.34241C1.22999 1.03491 1.33749 0.77341 1.55299 0.55741C1.76849 0.34091 2.02849 0.23291 2.33399 0.23291H3.32599V0.84241H2.33399C2.19499 0.84241 2.07599 0.89091 1.97749 0.98841C1.87899 1.08591 1.82999 1.20391 1.82999 1.34241V2.17841C1.82999 2.41991 1.75999 2.63691 1.61949 2.82841C1.47949 3.01991 1.29449 3.15341 1.06449 3.22841V3.33141C1.29449 3.40641 1.47949 3.53991 1.61949 3.73141C1.75999 3.92291 1.82999 4.13991 1.82999 4.38141V5.21741C1.82999 5.35591 1.87899 5.47391 1.97749 5.57141C2.07599 5.66891 2.19499 5.71741 2.33399 5.71741H3.32599V6.32691H2.33399Z" fill="#888EA5"/>
</svg>
