<svg width="9" height="7" viewBox="0 0 9 7" fill="none" xmlns="http://www.w3.org/2000/svg">
<path d="M1.17299 6.28027C0.970995 6.28027 0.799995 6.21027 0.659995 6.07027C0.521995 5.93577 0.445995 5.74977 0.449995 5.55727V1.00327C0.449995 0.801273 0.519995 0.630273 0.659995 0.490273C0.799995 0.350273 0.970995 0.280273 1.17299 0.280273H7.32699C7.52899 0.280273 7.69999 0.350273 7.83999 0.490273C7.97999 0.630273 8.04999 0.801273 8.04999 1.00327V5.55727C8.04999 5.75927 7.97999 5.93027 7.83999 6.07027C7.69999 6.21027 7.52899 6.28027 7.32699 6.28027H1.17299ZM1.17299 5.68027H7.32699C7.35899 5.67977 7.38999 5.66577 7.41149 5.64177C7.43549 5.62027 7.44949 5.58927 7.44999 5.55727V1.68027H1.04999V5.55727C1.04999 5.58777 1.06299 5.61627 1.08849 5.64177C1.10999 5.66577 1.14099 5.67977 1.17299 5.68027ZM2.44999 5.13777L2.03249 4.72027L3.06199 3.68027L2.02199 2.64027L2.44999 2.22277L3.90749 3.68027L2.44999 5.13777ZM4.34999 5.18027V4.58027H6.54999V5.18027H4.34999Z" fill="#888EA5"/>
</svg>
