<svg width="32" height="33" viewBox="0 0 32 33" fill="none" xmlns="http://www.w3.org/2000/svg">
<rect y="0.25" width="32" height="32" rx="4" fill="white"/>
<g clip-path="url(#clip0_1_901)">
<g clip-path="url(#clip1_1_901)">
<path d="M20.465 21.1078C20.291 21.2758 20.073 21.3608 19.812 21.3608C19.551 21.3608 19.325 21.2688 19.135 21.0858C18.945 20.9018 18.85 20.6838 18.85 20.4318C18.85 20.1798 18.945 19.9628 19.135 19.7788L22.816 16.2268L19.111 12.6518C18.937 12.4838 18.854 12.2738 18.862 12.0218C18.87 11.7698 18.961 11.5598 19.135 11.3918C19.309 11.2238 19.531 11.1398 19.8 11.1398C20.069 11.1398 20.291 11.2238 20.465 11.3918L24.835 15.6078C25.025 15.7918 25.12 16.0058 25.12 16.2498C25.12 16.4948 25.025 16.7078 24.835 16.8918L20.465 21.1078ZM11.535 21.1078L7.165 16.8918C6.975 16.7078 6.88 16.4948 6.88 16.2498C6.88 16.0058 6.975 15.7918 7.165 15.6078L11.535 11.3918C11.709 11.2238 11.931 11.1358 12.2 11.1278C12.469 11.1208 12.699 11.2078 12.889 11.3918C13.079 11.5748 13.174 11.7928 13.174 12.0448C13.174 12.2968 13.079 12.5148 12.889 12.6978L9.184 16.2728L12.889 19.8478C13.063 20.0158 13.146 20.2258 13.138 20.4778C13.13 20.7298 13.039 20.9398 12.865 21.1078C12.691 21.2758 12.469 21.3608 12.2 21.3608C11.931 21.3608 11.709 21.2758 11.535 21.1078Z" fill="black"/>
</g>
</g>
<defs>
<clipPath id="clip0_1_901">
<rect width="19" height="11" fill="white" transform="translate(6.5 10.75)"/>
</clipPath>
<clipPath id="clip1_1_901">
<rect width="19" height="11" fill="white" transform="translate(6.5 10.75)"/>
</clipPath>
</defs>
</svg>
