<svg width="7" height="7" viewBox="0 0 7 7" fill="none" xmlns="http://www.w3.org/2000/svg">
<path d="M3.60901 0.0546875C5.16151 0.0546875 5.93801 0.0546875 6.42051 0.537188C6.90301 1.01969 6.90301 1.79569 6.90301 3.34919C6.90301 4.90169 6.90301 5.67819 6.42051 6.16069C5.93801 6.64319 5.16151 6.64319 3.60901 6.64319C2.05601 6.64319 1.27951 6.64319 0.797014 6.16069C0.314514 5.67769 0.314514 4.90119 0.314514 3.34919C0.314514 1.79569 0.314514 1.01969 0.797014 0.537188C1.27951 0.0546875 2.05601 0.0546875 3.60901 0.0546875ZM3.60901 3.81969C3.74201 3.81969 3.85401 3.77469 3.94401 3.68469C4.03451 3.59419 4.07951 3.48269 4.07951 3.34919V1.93719C4.07951 1.80369 4.03401 1.69219 3.94401 1.60169C3.85551 1.51219 3.73451 1.46319 3.60901 1.46619C3.47551 1.46619 3.36401 1.51169 3.27301 1.60169C3.18301 1.69219 3.13801 1.80369 3.13801 1.93719V3.34919C3.13801 3.48219 3.18351 3.59419 3.27301 3.68419C3.36401 3.77419 3.47501 3.81919 3.60901 3.81919V3.81969ZM3.60901 5.23219C3.74201 5.23219 3.85401 5.18669 3.94401 5.09619C4.03451 5.00569 4.07951 4.89419 4.07951 4.76069C4.07951 4.62769 4.03401 4.51569 3.94401 4.42569C3.85551 4.33619 3.73451 4.28719 3.60901 4.29019C3.47551 4.29019 3.36401 4.33569 3.27301 4.42569C3.18301 4.51569 3.13801 4.62769 3.13801 4.76069C3.13801 4.89419 3.18351 5.00569 3.27301 5.09619C3.36401 5.18669 3.47501 5.23219 3.60901 5.23219Z" fill="#888EA5"/>
</svg>
